<svg width="225" height="41" viewBox="0 0 225 41" fill="none" xmlns="http://www.w3.org/2000/svg">
<path d="M8.65057 32L10.3267 26.4318H19.929L21.6051 32H30.1278L20.5256 2.90909H9.73011L0.127841 32H8.65057ZM12.1165 20.5227L15.0142 10.9205H15.2415L18.1392 20.5227H12.1165ZM39.2223 32.2841C42.2905 32.2841 44.3928 30.6364 45.3018 28.4205H45.4723V32H53.2564V2.90909H45.4155V13.9886H45.3018C44.4496 11.7727 42.4041 9.89773 39.1655 9.89773C34.8473 9.89773 30.6428 13.1932 30.6428 21.0909C30.6428 28.6477 34.5632 32.2841 39.2223 32.2841ZM42.12 26.2614C39.9609 26.2614 38.7109 24.3295 38.7109 21.0909C38.7109 17.8523 39.9609 15.9205 42.12 15.9205C44.2791 15.9205 45.5859 17.8523 45.5859 21.0909C45.5859 24.2727 44.2791 26.2614 42.12 26.2614ZM65.0036 32.2841C68.0717 32.2841 70.174 30.6364 71.0831 28.4205H71.2536V32H79.0376V2.90909H71.1967V13.9886H71.0831C70.2308 11.7727 68.1854 9.89773 64.9467 9.89773C60.6286 9.89773 56.424 13.1932 56.424 21.0909C56.424 28.6477 60.3445 32.2841 65.0036 32.2841ZM67.9013 26.2614C65.7422 26.2614 64.4922 24.3295 64.4922 21.0909C64.4922 17.8523 65.7422 15.9205 67.9013 15.9205C70.0604 15.9205 71.3672 17.8523 71.3672 21.0909C71.3672 24.2727 70.0604 26.2614 67.9013 26.2614ZM90.7422 32H98.6399V22.3977H101.367L106.481 32H115.06L109.151 21.1477C112.248 19.6562 114.094 16.8295 114.094 12.7955C114.094 6.60227 109.762 2.90909 103.299 2.90909H90.7422V32ZM98.6399 16.2614V9.21591H101.424C104.194 9.21591 105.856 10.2955 105.856 12.7955C105.856 15.2812 104.194 16.2614 101.424 16.2614H98.6399ZM127.56 32.3977C133.612 32.3977 137.504 29.5 138.242 24.9545H131.083C130.629 26.1903 129.336 26.8864 127.731 26.8864C125.401 26.8864 124.038 25.3523 124.038 23.25V22.9091H138.242V21.0909C138.242 14.1449 133.981 9.89773 127.39 9.89773C120.629 9.89773 116.31 14.3864 116.31 21.1477C116.31 28.2074 120.572 32.3977 127.56 32.3977ZM124.038 18.5909C124.08 16.7017 125.643 15.4091 127.56 15.4091C129.506 15.4091 130.984 16.7159 131.026 18.5909H124.038ZM151.953 32.3977C158.416 32.3977 162.379 28.6903 162.464 22.9091H155.192C155.021 25.196 153.786 26.4318 152.067 26.4318C150.007 26.4318 148.658 24.6705 148.658 21.0909C148.658 17.5114 150.007 15.75 152.067 15.75C153.8 15.75 154.979 16.9858 155.192 19.2727H162.464C162.422 13.5909 158.374 9.89773 151.953 9.89773C144.851 9.89773 140.646 14.4432 140.646 21.1477C140.646 27.8523 144.851 32.3977 151.953 32.3977ZM165.7 32H173.54V10.1818H165.7V32ZM169.62 7.90909C171.751 7.90909 173.484 6.30398 173.484 4.32955C173.484 2.35511 171.751 0.75 169.62 0.75C167.489 0.75 165.756 2.35511 165.756 4.32955C165.756 6.30398 167.489 7.90909 169.62 7.90909ZM177.536 40.1818H185.376V28.4205H185.49C186.399 30.6364 188.501 32.2841 191.57 32.2841C196.229 32.2841 200.149 28.6477 200.149 21.0909C200.149 13.1932 195.945 9.89773 191.626 9.89773C188.388 9.89773 186.342 11.7727 185.49 13.9886H185.32V10.1818H177.536V40.1818ZM185.206 21.0909C185.206 17.8523 186.513 15.9205 188.672 15.9205C190.831 15.9205 192.081 17.8523 192.081 21.0909C192.081 24.3295 190.831 26.2614 188.672 26.2614C186.513 26.2614 185.206 24.2727 185.206 21.0909ZM213.888 32.3977C219.94 32.3977 223.832 29.5 224.57 24.9545H217.411C216.957 26.1903 215.664 26.8864 214.059 26.8864C211.729 26.8864 210.366 25.3523 210.366 23.25V22.9091H224.57V21.0909C224.57 14.1449 220.309 9.89773 213.718 9.89773C206.957 9.89773 202.638 14.3864 202.638 21.1477C202.638 28.2074 206.9 32.3977 213.888 32.3977ZM210.366 18.5909C210.408 16.7017 211.971 15.4091 213.888 15.4091C215.835 15.4091 217.312 16.7159 217.354 18.5909H210.366Z" fill="white"/>
</svg>
