<svg width="915" height="340" viewBox="0 0 915 340" fill="none" xmlns="http://www.w3.org/2000/svg">
<path d="M106.297 55.8552H71.3586L61.7448 99.7034C58.6966 113.772 56.1172 128.076 53.5379 143.317H52.6C50.2552 128.545 47.2069 114.945 43.4552 99.469L32.9035 55.8552H0.0758614L31.2621 167H70.6552L79.8 119.166C82.1448 106.503 84.4897 92.669 86.3655 79.3034H87.5379C89.1793 92.9034 91.2897 106.269 94.1035 119.166L104.186 167H143.345L174.531 55.8552H143.11L134.435 99.469C131.152 115.179 128.103 128.779 125.29 143.317H124.352C121.772 128.076 119.193 113.772 115.91 99.7034L106.297 55.8552ZM226.431 79.3034C240.734 79.3034 248.003 86.8069 248.941 101.579H202.044C204.155 85.869 212.362 79.3034 226.431 79.3034ZM226.899 170.048C257.382 170.048 271.92 154.572 277.313 134.407L249.644 126.669C247.065 135.345 242.141 142.614 227.368 142.614C212.362 142.614 203.92 135.579 201.81 119.634H277.782C278.251 113.538 278.251 109.786 278.251 104.862C278.251 74.6138 261.603 52.8069 227.368 52.8069C191.258 52.8069 169.92 75.3172 169.92 113.772C169.92 150.821 193.368 170.048 226.899 170.048ZM329.335 132.062C329.335 153.166 340.122 170.283 365.915 170.283C378.108 170.283 383.735 168.641 392.177 166.062L388.66 136.517C384.673 137.455 379.046 139.097 374.122 139.097C364.508 139.097 361.225 134.876 361.225 125.966V82.5862H390.535V55.8552H361.225V27.9517H329.335V55.8552H316.439V82.5862H329.335V132.062ZM431.359 101.814C431.359 89.1517 438.863 81.6483 451.759 81.6483C465.125 81.6483 470.283 90.3241 470.283 101.814V167H502.173V92.669C502.173 68.7517 492.09 52.8069 467.939 52.8069C450.118 52.8069 436.752 61.4827 431.594 87.0414H431.359V23.2621H399.235V167H431.359V101.814ZM566.705 79.3034C581.009 79.3034 588.278 86.8069 589.216 101.579H542.319C544.429 85.869 552.636 79.3034 566.705 79.3034ZM567.174 170.048C597.657 170.048 612.195 154.572 617.588 134.407L589.919 126.669C587.34 135.345 582.416 142.614 567.643 142.614C552.636 142.614 544.195 135.579 542.085 119.634H618.057C618.526 113.538 618.526 109.786 618.526 104.862C618.526 74.6138 601.878 52.8069 567.643 52.8069C531.533 52.8069 510.195 75.3172 510.195 113.772C510.195 150.821 533.643 170.048 567.174 170.048Z" fill="#FFC83A"/>
<path d="M294.899 194.669C294.899 185.524 299.354 181.538 307.795 181.538C311.313 181.538 314.83 181.772 318.582 182.476L320.926 159.966C316.471 159.028 311.547 158.324 303.106 158.324C275.671 158.324 263.009 173.566 263.009 194.903V196.545H248.002V223.276H263.009V307.69H294.899V223.276H318.582V196.545H294.899V194.669ZM589.602 282.131C573.188 282.131 566.153 271.11 566.153 252.821C566.153 233.359 573.422 222.103 589.602 222.103C604.14 222.103 613.05 233.359 613.05 251.414V253.524C613.05 271.814 604.14 282.131 589.602 282.131ZM613.05 307.69H644.94V163.952H613.05V226.793H612.581C607.188 203.11 594.995 193.262 575.767 193.497C549.036 193.262 534.498 215.303 534.498 252.821C534.498 288.931 548.333 310.972 575.298 310.972C594.291 310.972 606.953 301.124 612.346 277.676H613.05V307.69ZM691.094 184.821V163.952H657.798V184.821H691.094ZM690.625 307.69V196.545H658.501V307.69H690.625ZM756.337 219.993C770.641 219.993 777.91 227.497 778.848 242.269H731.951C734.061 226.559 742.268 219.993 756.337 219.993ZM756.806 310.738C787.289 310.738 801.827 295.262 807.22 275.097L779.551 267.359C776.972 276.035 772.048 283.303 757.275 283.303C742.268 283.303 733.827 276.269 731.716 260.324H807.689C808.158 254.228 808.158 250.476 808.158 245.552C808.158 215.303 791.51 193.497 757.275 193.497C721.165 193.497 699.827 216.007 699.827 254.462C699.827 291.51 723.275 310.738 756.806 310.738ZM863.606 310.972C896.902 310.972 911.44 297.372 911.44 275.566C911.44 258.917 902.295 246.959 870.406 240.628C848.599 236.641 845.785 232.421 845.785 226.324C845.785 220.228 850.944 216.476 860.323 216.476C871.344 216.476 876.737 222.103 879.316 234.062L909.799 227.262C905.578 206.628 892.447 193.497 860.557 193.497C829.371 193.497 814.13 206.628 814.13 227.731C814.13 246.021 824.682 256.572 855.868 263.138C875.799 267.124 880.019 270.641 880.019 276.738C879.785 283.538 874.626 287.29 864.309 287.29C850.709 287.29 844.144 280.021 841.095 267.593L811.316 273.455C814.599 293.855 826.088 310.972 863.606 310.972Z" fill="black"/>
<rect x="369.42" y="186.855" width="101.254" height="101.254" rx="2.95725" transform="rotate(40.2083 369.42 186.855)" fill="#FFC83A"/>
<circle cx="390.056" cy="233.856" r="34.0084" transform="rotate(-26.5536 390.056 233.856)" fill="#EC5353"/>
<circle cx="356.542" cy="283.664" r="34.0084" transform="rotate(-26.5536 356.542 283.664)" fill="#EC5353"/>
<path d="M362.67 209.426C350.052 210.214 344.927 206.797 343.941 204.99C337.041 204.004 339.998 211.89 335.562 215.34C331.126 218.79 328.662 223.226 328.662 231.605C328.662 239.984 323.733 250.334 319.297 255.756C314.861 261.178 315.354 266.106 319.297 276.457C323.24 286.807 320.283 292.229 328.662 292.229C337.041 292.229 346.405 300.115 347.884 305.536C349.362 310.958 349.362 315.887 359.22 315.887C369.077 315.887 368.585 318.351 376.963 319.337C385.342 320.323 385.342 316.38 390.764 315.887C396.186 315.394 388.792 307.508 403.086 300.115C417.379 292.722 419.351 298.143 421.322 292.229C423.294 286.314 424.279 276.95 421.322 270.542C418.365 264.135 438.08 249.842 432.658 246.391C427.237 242.941 429.701 233.084 427.73 227.169C425.758 221.255 411.958 219.776 403.086 220.762C394.214 221.748 395.693 204.99 385.342 202.526C374.992 200.061 378.442 208.44 362.67 209.426Z" stroke="black" stroke-width="3.943"/>
<path d="M386.249 210.611C374.708 205.943 371.609 200.727 371.503 198.703C365.794 194.891 365.065 203.153 359.658 204.329C354.25 205.506 350.174 208.397 346.609 215.838C343.044 223.279 334.263 230.374 328.017 233.301C321.77 236.229 320.111 240.816 319.209 251.685C318.306 262.555 313.373 266.112 320.814 269.677C328.255 273.242 333.216 284.23 332.223 289.674C331.229 295.118 329.132 299.495 337.886 303.689C346.64 307.884 345.154 309.863 352.176 314.303C359.198 318.744 360.875 315.242 365.9 317.111C370.924 318.98 367.714 308.831 383.554 308.347C399.393 307.863 398.837 313.517 403.104 309.103C407.372 304.69 412.232 296.792 412.332 289.844C412.432 282.895 436.022 278.59 432.675 273.219C429.328 267.849 435.711 260.143 436.477 254.051C437.243 247.96 425.616 240.775 417.318 237.875C409.019 234.976 417.463 220.723 409.319 214.13C401.176 207.538 400.675 216.447 386.249 210.611Z" stroke="#5EAF70" stroke-width="3.943"/>
<circle cx="374.992" cy="258.22" r="54.2162" fill="#E9AE56"/>
<circle cx="374.962" cy="257.931" r="24.751" fill="#D5983C"/>
<path d="M495.31 256.866C495.31 269.82 484.555 280.419 471.164 280.419C457.774 280.419 447.018 269.82 447.018 256.866C447.018 243.913 457.774 233.314 471.164 233.314C484.555 233.314 495.31 243.913 495.31 256.866Z" fill="white" stroke="#E2931B" stroke-width="5.16127"/>
<path d="M529.758 256.866C529.758 288.172 503.597 313.679 471.164 313.679C438.731 313.679 412.57 288.172 412.57 256.866C412.57 225.561 438.731 200.054 471.164 200.054C503.597 200.054 529.758 225.561 529.758 256.866Z" fill="#E2931B" stroke="#E2931B" stroke-width="5.16127"/>
<path opacity="0.8" d="M482.099 206.031C470.014 201.143 466.769 195.681 466.658 193.561C460.68 189.57 459.916 198.221 454.254 199.453C448.591 200.685 444.323 203.712 440.59 211.505C436.856 219.297 427.661 226.726 421.12 229.792C414.579 232.857 412.841 237.661 411.896 249.043C410.952 260.426 405.786 264.15 413.578 267.883C421.37 271.617 426.565 283.123 425.525 288.824C424.484 294.525 422.288 299.108 431.455 303.5C440.622 307.893 439.066 309.965 446.419 314.615C453.772 319.265 455.529 315.598 460.79 317.555C466.052 319.513 462.69 308.885 479.277 308.378C495.864 307.871 495.281 313.792 499.75 309.17C504.219 304.548 509.308 296.278 509.413 289.002C509.518 281.725 534.221 277.217 530.716 271.593C527.211 265.969 533.895 257.9 534.697 251.521C535.499 245.142 523.324 237.618 514.634 234.582C505.944 231.545 514.786 216.62 506.258 209.716C497.731 202.813 497.206 212.142 482.099 206.031Z" fill="white" stroke="#D7D7D7" stroke-width="4.12901"/>
<ellipse cx="471.164" cy="258.648" rx="24.3512" ry="23.1633" fill="white"/>
<path d="M471.164 284.392C485.915 284.392 498.096 272.986 498.096 258.648C498.096 244.31 485.915 232.904 471.164 232.904C456.413 232.904 444.232 244.31 444.232 258.648C444.232 272.986 456.413 284.392 471.164 284.392Z" stroke="#D7D7D7" stroke-opacity="0.6" stroke-width="5.16127"/>
</svg>
