<svg width="366" height="69" viewBox="0 0 366 69" fill="none" xmlns="http://www.w3.org/2000/svg">
<rect x="0.75" y="0.75" width="364.5" height="67.5" fill="#F4BA26" stroke="#F4BA26" stroke-width="1.5"/>
<path d="M37.2147 20.2312V16.5833H31.8589C31.3855 16.5833 30.9314 16.3946 30.5966 16.0586C30.2618 15.7226 30.0737 15.2668 30.0737 14.7917C30.0737 14.3165 30.2618 13.8608 30.5966 13.5248C30.9314 13.1888 31.3855 13 31.8589 13H46.1411C46.6145 13 47.0686 13.1888 47.4034 13.5248C47.7382 13.8608 47.9263 14.3165 47.9263 14.7917C47.9263 15.2668 47.7382 15.7226 47.4034 16.0586C47.0686 16.3946 46.6145 16.5833 46.1411 16.5833H40.7853V20.2312C44.2104 20.4765 47.5485 21.4274 50.5912 23.0248C53.6339 24.6221 56.316 26.8316 58.4702 29.5153C60.6243 32.199 62.2044 35.2994 63.1117 38.6231C64.019 41.9468 64.2342 45.4225 63.7438 48.8333H14.2562C13.7658 45.4225 13.981 41.9468 14.8883 38.6231C15.7956 35.2994 17.3757 32.199 19.5298 29.5153C21.684 26.8316 24.3661 24.6221 27.4088 23.0248C30.4515 21.4274 33.7896 20.4765 37.2147 20.2312V20.2312ZM17.5768 45.25H60.4232C60.4232 42.4266 59.8691 39.6308 58.7924 37.0223C57.7158 34.4138 56.1378 32.0437 54.1485 30.0472C52.1592 28.0507 49.7975 26.4671 47.1983 25.3866C44.5991 24.3061 41.8133 23.75 39 23.75C36.1867 23.75 33.4009 24.3061 30.8017 25.3866C28.2025 26.4671 25.8408 28.0507 23.8515 30.0472C21.8622 32.0437 20.2842 34.4138 19.2076 37.0223C18.1309 39.6308 17.5768 42.4266 17.5768 45.25V45.25ZM15.7916 52.4167H62.2084C62.6819 52.4167 63.136 52.6054 63.4708 52.9414C63.8056 53.2774 63.9937 53.7332 63.9937 54.2083C63.9937 54.6835 63.8056 55.1392 63.4708 55.4752C63.136 55.8112 62.6819 56 62.2084 56H15.7916C15.3181 56 14.864 55.8112 14.5292 55.4752C14.1944 55.1392 14.0063 54.6835 14.0063 54.2083C14.0063 53.7332 14.1944 53.2774 14.5292 52.9414C14.864 52.6054 15.3181 52.4167 15.7916 52.4167V52.4167Z" fill="#FAF9F6"/>
<path d="M109.215 20.2312V16.5833H103.859C103.385 16.5833 102.931 16.3946 102.597 16.0586C102.262 15.7226 102.074 15.2668 102.074 14.7917C102.074 14.3165 102.262 13.8608 102.597 13.5248C102.931 13.1888 103.385 13 103.859 13H118.141C118.615 13 119.069 13.1888 119.403 13.5248C119.738 13.8608 119.926 14.3165 119.926 14.7917C119.926 15.2668 119.738 15.7226 119.403 16.0586C119.069 16.3946 118.615 16.5833 118.141 16.5833H112.785V20.2312C116.21 20.4765 119.548 21.4274 122.591 23.0248C125.634 24.6221 128.316 26.8316 130.47 29.5153C132.624 32.199 134.204 35.2994 135.112 38.6231C136.019 41.9468 136.234 45.4225 135.744 48.8333H86.2562C85.7658 45.4225 85.981 41.9468 86.8883 38.6231C87.7956 35.2994 89.3757 32.199 91.5298 29.5153C93.684 26.8316 96.3661 24.6221 99.4088 23.0248C102.452 21.4274 105.79 20.4765 109.215 20.2312V20.2312ZM89.5768 45.25H132.423C132.423 42.4266 131.869 39.6308 130.792 37.0223C129.716 34.4138 128.138 32.0437 126.148 30.0472C124.159 28.0507 121.797 26.4671 119.198 25.3866C116.599 24.3061 113.813 23.75 111 23.75C108.187 23.75 105.401 24.3061 102.802 25.3866C100.203 26.4671 97.8408 28.0507 95.8515 30.0472C93.8622 32.0437 92.2842 34.4138 91.2076 37.0223C90.1309 39.6308 89.5768 42.4266 89.5768 45.25V45.25ZM87.7916 52.4167H134.208C134.682 52.4167 135.136 52.6054 135.471 52.9414C135.806 53.2774 135.994 53.7332 135.994 54.2083C135.994 54.6835 135.806 55.1392 135.471 55.4752C135.136 55.8112 134.682 56 134.208 56H87.7916C87.3181 56 86.864 55.8112 86.5292 55.4752C86.1944 55.1392 86.0063 54.6835 86.0063 54.2083C86.0063 53.7332 86.1944 53.2774 86.5292 52.9414C86.864 52.6054 87.3181 52.4167 87.7916 52.4167V52.4167Z" fill="#FAF9F6"/>
<path d="M181.215 20.2312V16.5833H175.859C175.385 16.5833 174.931 16.3946 174.597 16.0586C174.262 15.7226 174.074 15.2668 174.074 14.7917C174.074 14.3165 174.262 13.8608 174.597 13.5248C174.931 13.1888 175.385 13 175.859 13H190.141C190.615 13 191.069 13.1888 191.403 13.5248C191.738 13.8608 191.926 14.3165 191.926 14.7917C191.926 15.2668 191.738 15.7226 191.403 16.0586C191.069 16.3946 190.615 16.5833 190.141 16.5833H184.785V20.2312C188.21 20.4765 191.548 21.4274 194.591 23.0248C197.634 24.6221 200.316 26.8316 202.47 29.5153C204.624 32.199 206.204 35.2994 207.112 38.6231C208.019 41.9468 208.234 45.4225 207.744 48.8333H158.256C157.766 45.4225 157.981 41.9468 158.888 38.6231C159.796 35.2994 161.376 32.199 163.53 29.5153C165.684 26.8316 168.366 24.6221 171.409 23.0248C174.452 21.4274 177.79 20.4765 181.215 20.2312V20.2312ZM161.577 45.25H204.423C204.423 42.4266 203.869 39.6308 202.792 37.0223C201.716 34.4138 200.138 32.0437 198.148 30.0472C196.159 28.0507 193.797 26.4671 191.198 25.3866C188.599 24.3061 185.813 23.75 183 23.75C180.187 23.75 177.401 24.3061 174.802 25.3866C172.203 26.4671 169.841 28.0507 167.852 30.0472C165.862 32.0437 164.284 34.4138 163.208 37.0223C162.131 39.6308 161.577 42.4266 161.577 45.25V45.25ZM159.792 52.4167H206.208C206.682 52.4167 207.136 52.6054 207.471 52.9414C207.806 53.2774 207.994 53.7332 207.994 54.2083C207.994 54.6835 207.806 55.1392 207.471 55.4752C207.136 55.8112 206.682 56 206.208 56H159.792C159.318 56 158.864 55.8112 158.529 55.4752C158.194 55.1392 158.006 54.6835 158.006 54.2083C158.006 53.7332 158.194 53.2774 158.529 52.9414C158.864 52.6054 159.318 52.4167 159.792 52.4167V52.4167Z" fill="#FAF9F6"/>
<path d="M253.215 20.2312V16.5833H247.859C247.385 16.5833 246.931 16.3946 246.597 16.0586C246.262 15.7226 246.074 15.2668 246.074 14.7917C246.074 14.3165 246.262 13.8608 246.597 13.5248C246.931 13.1888 247.385 13 247.859 13H262.141C262.615 13 263.069 13.1888 263.403 13.5248C263.738 13.8608 263.926 14.3165 263.926 14.7917C263.926 15.2668 263.738 15.7226 263.403 16.0586C263.069 16.3946 262.615 16.5833 262.141 16.5833H256.785V20.2312C260.21 20.4765 263.548 21.4274 266.591 23.0248C269.634 24.6221 272.316 26.8316 274.47 29.5153C276.624 32.199 278.204 35.2994 279.112 38.6231C280.019 41.9468 280.234 45.4225 279.744 48.8333H230.256C229.766 45.4225 229.981 41.9468 230.888 38.6231C231.796 35.2994 233.376 32.199 235.53 29.5153C237.684 26.8316 240.366 24.6221 243.409 23.0248C246.452 21.4274 249.79 20.4765 253.215 20.2312V20.2312ZM233.577 45.25H276.423C276.423 42.4266 275.869 39.6308 274.792 37.0223C273.716 34.4138 272.138 32.0437 270.148 30.0472C268.159 28.0507 265.797 26.4671 263.198 25.3866C260.599 24.3061 257.813 23.75 255 23.75C252.187 23.75 249.401 24.3061 246.802 25.3866C244.203 26.4671 241.841 28.0507 239.852 30.0472C237.862 32.0437 236.284 34.4138 235.208 37.0223C234.131 39.6308 233.577 42.4266 233.577 45.25V45.25ZM231.792 52.4167H278.208C278.682 52.4167 279.136 52.6054 279.471 52.9414C279.806 53.2774 279.994 53.7332 279.994 54.2083C279.994 54.6835 279.806 55.1392 279.471 55.4752C279.136 55.8112 278.682 56 278.208 56H231.792C231.318 56 230.864 55.8112 230.529 55.4752C230.194 55.1392 230.006 54.6835 230.006 54.2083C230.006 53.7332 230.194 53.2774 230.529 52.9414C230.864 52.6054 231.318 52.4167 231.792 52.4167V52.4167Z" fill="#FAF9F6"/>
<path d="M325.215 20.2312V16.5833H319.859C319.385 16.5833 318.931 16.3946 318.597 16.0586C318.262 15.7226 318.074 15.2668 318.074 14.7917C318.074 14.3165 318.262 13.8608 318.597 13.5248C318.931 13.1888 319.385 13 319.859 13H334.141C334.615 13 335.069 13.1888 335.403 13.5248C335.738 13.8608 335.926 14.3165 335.926 14.7917C335.926 15.2668 335.738 15.7226 335.403 16.0586C335.069 16.3946 334.615 16.5833 334.141 16.5833H328.785V20.2312C332.21 20.4765 335.548 21.4274 338.591 23.0248C341.634 24.6221 344.316 26.8316 346.47 29.5153C348.624 32.199 350.204 35.2994 351.112 38.6231C352.019 41.9468 352.234 45.4225 351.744 48.8333H302.256C301.766 45.4225 301.981 41.9468 302.888 38.6231C303.796 35.2994 305.376 32.199 307.53 29.5153C309.684 26.8316 312.366 24.6221 315.409 23.0248C318.452 21.4274 321.79 20.4765 325.215 20.2312V20.2312ZM305.577 45.25H348.423C348.423 42.4266 347.869 39.6308 346.792 37.0223C345.716 34.4138 344.138 32.0437 342.148 30.0472C340.159 28.0507 337.797 26.4671 335.198 25.3866C332.599 24.3061 329.813 23.75 327 23.75C324.187 23.75 321.401 24.3061 318.802 25.3866C316.203 26.4671 313.841 28.0507 311.852 30.0472C309.862 32.0437 308.284 34.4138 307.208 37.0223C306.131 39.6308 305.577 42.4266 305.577 45.25V45.25ZM303.792 52.4167H350.208C350.682 52.4167 351.136 52.6054 351.471 52.9414C351.806 53.2774 351.994 53.7332 351.994 54.2083C351.994 54.6835 351.806 55.1392 351.471 55.4752C351.136 55.8112 350.682 56 350.208 56H303.792C303.318 56 302.864 55.8112 302.529 55.4752C302.194 55.1392 302.006 54.6835 302.006 54.2083C302.006 53.7332 302.194 53.2774 302.529 52.9414C302.864 52.6054 303.318 52.4167 303.792 52.4167V52.4167Z" fill="#FAF9F6"/>
</svg>
