<svg width="167" height="103" viewBox="0 0 167 103" fill="none" xmlns="http://www.w3.org/2000/svg">
<rect x="0.75" y="0.75" width="165.5" height="101.5" fill="#F4BA26" stroke="#F4BA26" stroke-width="1.5"/>
<path d="M81.8577 34.5765V30.25H75.4307C74.8625 30.25 74.3176 30.0261 73.9159 29.6276C73.5141 29.2291 73.2884 28.6886 73.2884 28.125C73.2884 27.5614 73.5141 27.0209 73.9159 26.6224C74.3176 26.2239 74.8625 26 75.4307 26H92.5693C93.1374 26 93.6824 26.2239 94.0841 26.6224C94.4859 27.0209 94.7116 27.5614 94.7116 28.125C94.7116 28.6886 94.4859 29.2291 94.0841 29.6276C93.6824 30.0261 93.1374 30.25 92.5693 30.25H86.1423V34.5765C90.2525 34.8674 94.2582 35.9953 97.9094 37.8899C101.561 39.7844 104.779 42.4049 107.364 45.5879C109.949 48.7709 111.845 52.4481 112.934 56.3902C114.023 60.3323 114.281 64.4546 113.693 68.5H54.3075C53.719 64.4546 53.9771 60.3323 55.0659 56.3902C56.1547 52.4481 58.0508 48.7709 60.6358 45.5879C63.2208 42.4049 66.4393 39.7844 70.0906 37.8899C73.7418 35.9953 77.7475 34.8674 81.8577 34.5765V34.5765ZM58.2922 64.25H109.708C109.708 60.9013 109.043 57.5854 107.751 54.4916C106.459 51.3978 104.565 48.5867 102.178 46.2188C99.791 43.8509 96.957 41.9726 93.838 40.6911C90.7189 39.4096 87.376 38.75 84 38.75C80.624 38.75 77.2811 39.4096 74.162 40.6911C71.043 41.9726 68.209 43.8509 65.8218 46.2188C63.4346 48.5867 61.541 51.3978 60.2491 54.4916C58.9571 57.5854 58.2922 60.9013 58.2922 64.25V64.25ZM56.1499 72.75H111.85C112.418 72.75 112.963 72.9739 113.365 73.3724C113.767 73.7709 113.992 74.3114 113.992 74.875C113.992 75.4386 113.767 75.9791 113.365 76.3776C112.963 76.7761 112.418 77 111.85 77H56.1499C55.5817 77 55.0368 76.7761 54.635 76.3776C54.2333 75.9791 54.0075 75.4386 54.0075 74.875C54.0075 74.3114 54.2333 73.7709 54.635 73.3724C55.0368 72.9739 55.5817 72.75 56.1499 72.75V72.75Z" fill="#FAF9F6"/>
</svg>
