<svg width="58" height="106" viewBox="0 0 58 106" fill="none" xmlns="http://www.w3.org/2000/svg">
<path d="M68.9426 51.2256C68.9426 59.6892 61.9149 66.6147 53.1655 66.6147C44.4162 66.6147 37.3884 59.6892 37.3884 51.2256C37.3884 42.762 44.4162 35.8366 53.1655 35.8366C61.9149 35.8366 68.9426 42.762 68.9426 51.2256Z" fill="white" stroke="#E2931B" stroke-width="3.37236"/>
<path d="M91.4509 51.2257C91.4509 71.6804 74.3573 88.3468 53.1656 88.3468C31.9739 88.3468 14.8803 71.6804 14.8803 51.2257C14.8803 30.7709 31.9739 14.1046 53.1656 14.1046C74.3573 14.1046 91.4509 30.7709 91.4509 51.2257Z" fill="#E2931B" stroke="#E2931B" stroke-width="3.37236"/>
<path opacity="0.8" d="M60.3108 18.0102C52.4142 14.816 50.2943 11.2472 50.2215 9.86203C46.3155 7.25416 45.8166 12.907 42.1167 13.712C38.4169 14.517 35.628 16.495 33.1886 21.5864C30.7492 26.6778 24.741 31.5322 20.4671 33.5352C16.1933 35.5382 15.0579 38.6767 14.4405 46.1139C13.8231 53.5512 10.4477 55.9847 15.5391 58.4241C20.6305 60.8634 24.025 68.3817 23.3451 72.1066C22.6651 75.8315 21.2302 78.8264 27.2201 81.6963C33.2099 84.5661 32.193 85.9201 36.9974 88.9584C41.8018 91.9968 42.9497 89.6008 46.3876 90.8797C49.8256 92.1587 47.629 85.2144 58.4667 84.8832C69.3044 84.5521 68.924 88.4205 71.8438 85.4006C74.7637 82.3806 78.089 76.9772 78.1575 72.2228C78.2259 67.4685 94.3669 64.5229 92.0769 60.848C89.7869 57.1731 94.1542 51.9007 94.6782 47.7328C95.2021 43.5649 87.2468 38.6487 81.5689 36.6648C75.891 34.681 81.6682 24.9287 76.0963 20.4179C70.5244 15.9071 70.1815 22.0029 60.3108 18.0102Z" fill="white" stroke="#D7D7D7" stroke-width="2.69789"/>
<ellipse cx="53.1659" cy="52.3899" rx="15.911" ry="15.1348" fill="white"/>
<path d="M53.1659 69.2109C62.804 69.2109 70.763 61.7583 70.763 52.3899C70.763 43.0214 62.804 35.5688 53.1659 35.5688C43.5277 35.5688 35.5687 43.0214 35.5687 52.3899C35.5687 61.7583 43.5277 69.2109 53.1659 69.2109Z" stroke="#D7D7D7" stroke-opacity="0.6" stroke-width="3.37236"/>
</svg>
