<svg width="27" height="28" viewBox="0 0 27 28" fill="none" xmlns="http://www.w3.org/2000/svg">
<circle cx="13.2045" cy="13.2045" r="13.2045" fill="#EC8A53"/>
<path d="M11.7176 11.4887H12.3414C12.6901 11.4887 13.0255 11.4686 13.3474 11.4284C13.6828 11.3881 13.9779 11.3009 14.2328 11.1668C14.501 11.0326 14.7157 10.8381 14.8766 10.5833C15.0376 10.3284 15.1181 9.98634 15.1181 9.55709C15.1181 9.00711 14.9303 8.55774 14.5547 8.20897C14.1791 7.8602 13.6895 7.68582 13.0859 7.68582C12.6029 7.68582 12.167 7.82667 11.778 8.10836C11.4024 8.37665 11.1274 8.75895 10.953 9.25527L8.39761 8.57115C8.55858 8.048 8.78662 7.59192 9.08173 7.20291C9.37685 6.8139 9.72561 6.49867 10.128 6.25721C10.5305 6.00234 10.9731 5.81455 11.456 5.69382C11.9389 5.57309 12.442 5.51273 12.9651 5.51273C13.5822 5.51273 14.1657 5.59321 14.7157 5.75418C15.2657 5.91515 15.7486 6.15661 16.1644 6.47854C16.5802 6.78707 16.9089 7.18279 17.1503 7.6657C17.4052 8.13519 17.5326 8.68517 17.5326 9.31564C17.5326 10.0802 17.318 10.7644 16.8888 11.368C16.4595 11.9582 15.8626 12.3472 15.098 12.535V12.5753C16.0101 12.7094 16.701 13.0984 17.1705 13.7423C17.64 14.3862 17.8747 15.1508 17.8747 16.0361C17.8747 16.7202 17.7406 17.3239 17.4723 17.847C17.2174 18.3702 16.8686 18.8128 16.426 19.175C15.9833 19.5238 15.4669 19.7921 14.8766 19.9799C14.2998 20.1543 13.6962 20.2415 13.0657 20.2415C12.4755 20.2415 11.9188 20.1744 11.3957 20.0402C10.8725 19.9195 10.3963 19.725 9.96707 19.4567C9.55123 19.1884 9.18905 18.8464 8.88052 18.4305C8.572 18.0013 8.33725 17.4916 8.17628 16.9013L10.7518 16.2172C10.8994 16.8074 11.1609 17.2635 11.5365 17.5855C11.9121 17.9074 12.4219 18.0684 13.0657 18.0684C13.3877 18.0684 13.6895 18.0147 13.9712 17.9074C14.2663 17.8001 14.5212 17.6525 14.7358 17.4647C14.9638 17.2635 15.1382 17.0288 15.2589 16.7605C15.3931 16.4788 15.4602 16.1703 15.4602 15.8349C15.4602 15.3788 15.3596 15.0099 15.1583 14.7282C14.9705 14.4331 14.7224 14.2118 14.4139 14.0642C14.1187 13.9033 13.7834 13.796 13.4078 13.7423C13.0322 13.6886 12.6633 13.6618 12.3011 13.6618H11.7176V11.4887Z" fill="white"/>
</svg>
