<svg width="20" height="17" viewBox="0 0 20 17" fill="none" xmlns="http://www.w3.org/2000/svg">
<path d="M19.5161 3.48381C19.2058 2.80207 18.7584 2.18428 18.1988 1.66503C17.6389 1.14423 16.9787 0.730362 16.2542 0.445924C15.5029 0.149808 14.6971 -0.0017612 13.8835 1.54396e-05C12.7422 1.54396e-05 11.6286 0.296555 10.6609 0.856687C10.4294 0.990679 10.2095 1.13785 10.0011 1.2982C9.79279 1.13785 9.57286 0.990679 9.34135 0.856687C8.37364 0.296555 7.26009 1.54396e-05 6.11876 1.54396e-05C5.2969 1.54396e-05 4.50052 0.149384 3.74811 0.445924C3.02118 0.731481 2.36601 1.14224 1.80345 1.66503C1.24319 2.1837 0.795642 2.80163 0.486167 3.48381C0.164371 4.19331 0 4.94674 0 5.72214C0 6.45361 0.157426 7.21582 0.469961 7.99122C0.731565 8.63922 1.10661 9.31137 1.58583 9.99012C2.34518 11.0643 3.38928 12.1845 4.68572 13.3202C6.83412 15.2026 8.96167 16.503 9.05196 16.5557L9.60064 16.8896C9.84372 17.0368 10.1563 17.0368 10.3993 16.8896L10.948 16.5557C11.0383 16.5008 13.1635 15.2026 15.3143 13.3202C16.6107 12.1845 17.6548 11.0643 18.4141 9.99012C18.8934 9.31137 19.2707 8.63922 19.53 7.99122C19.8426 7.21582 20 6.45361 20 5.72214C20.0023 4.94674 19.8379 4.19331 19.5161 3.48381ZM10.0011 15.1521C10.0011 15.1521 1.75946 10.1417 1.75946 5.72214C1.75946 3.48381 3.71107 1.66943 6.11876 1.66943C7.81108 1.66943 9.27884 2.56564 10.0011 3.87481C10.7235 2.56564 12.1912 1.66943 13.8835 1.66943C16.2912 1.66943 18.2428 3.48381 18.2428 5.72214C18.2428 10.1417 10.0011 15.1521 10.0011 15.1521Z" fill="#FFC83A"/>
</svg>
