<svg width="861" height="291" viewBox="0 0 861 291" fill="none" xmlns="http://www.w3.org/2000/svg">
<rect x="341.575" y="154.323" width="90.0649" height="90.0649" rx="2.63047" transform="rotate(40.2083 341.575 154.323)" fill="#FFC83A"/>
<circle cx="359.931" cy="196.13" r="30.2504" transform="rotate(-26.5536 359.931 196.13)" fill="#EC5353"/>
<circle cx="330.12" cy="240.434" r="30.2504" transform="rotate(-26.5536 330.12 240.434)" fill="#EC5353"/>
<path d="M335.571 174.399C324.348 175.101 319.788 172.061 318.911 170.454C312.774 169.577 315.404 176.591 311.458 179.66C307.513 182.729 305.321 186.675 305.321 194.128C305.321 201.581 300.937 210.787 296.991 215.61C293.045 220.432 293.484 224.817 296.991 234.023C300.498 243.23 297.868 248.052 305.321 248.052C312.774 248.052 321.103 255.067 322.419 259.889C323.734 264.712 323.734 269.096 332.502 269.096C341.27 269.096 340.832 271.288 348.285 272.165C355.738 273.042 355.738 269.534 360.56 269.096C365.383 268.658 358.807 261.643 371.521 255.067C384.235 248.491 385.988 253.313 387.742 248.052C389.496 242.791 390.372 234.462 387.742 228.762C385.111 223.063 402.648 210.349 397.825 207.28C393.003 204.211 395.195 195.443 393.441 190.182C391.688 184.921 379.412 183.606 371.521 184.483C363.629 185.36 364.945 170.454 355.738 168.262C346.531 166.07 349.6 173.523 335.571 174.399Z" stroke="black" stroke-width="3.50729"/>
<path d="M356.544 175.454C346.278 171.301 343.523 166.662 343.428 164.861C338.35 161.471 337.701 168.82 332.892 169.866C328.082 170.913 324.456 173.484 321.285 180.103C318.114 186.722 310.303 193.033 304.747 195.637C299.191 198.241 297.715 202.321 296.912 211.989C296.109 221.658 291.721 224.821 298.34 227.992C304.959 231.164 309.372 240.937 308.488 245.78C307.604 250.622 305.739 254.516 313.526 258.247C321.313 261.977 319.991 263.738 326.236 267.688C332.482 271.637 333.974 268.523 338.444 270.185C342.913 271.848 340.058 262.82 354.147 262.39C368.236 261.959 367.741 266.988 371.537 263.062C375.333 259.136 379.656 252.112 379.745 245.931C379.834 239.75 400.817 235.921 397.84 231.144C394.863 226.366 400.541 219.512 401.222 214.094C401.903 208.675 391.561 202.284 384.18 199.705C376.799 197.126 384.309 184.448 377.066 178.584C369.822 172.72 369.376 180.644 356.544 175.454Z" stroke="#5EAF70" stroke-width="3.50729"/>
<circle cx="346.531" cy="217.802" r="48.2252" fill="#E9AE56"/>
<circle cx="346.504" cy="217.545" r="22.0159" fill="#D5983C"/>
<path d="M453.554 216.598C453.554 228.12 443.987 237.547 432.076 237.547C420.165 237.547 410.598 228.12 410.598 216.598C410.598 205.076 420.165 195.648 432.076 195.648C443.987 195.648 453.554 205.076 453.554 216.598Z" fill="white" stroke="#E2931B" stroke-width="4.59093"/>
<path d="M484.196 216.598C484.196 244.444 460.925 267.132 432.076 267.132C403.227 267.132 379.957 244.444 379.957 216.598C379.957 188.752 403.227 166.063 432.076 166.063C460.925 166.063 484.196 188.752 484.196 216.598Z" fill="#E2931B" stroke="#E2931B" stroke-width="4.59093"/>
<path opacity="0.8" d="M441.803 171.38C431.053 167.032 428.167 162.173 428.068 160.288C422.751 156.738 422.071 164.433 417.035 165.529C411.998 166.625 408.201 169.318 404.88 176.249C401.56 183.18 393.38 189.788 387.562 192.515C381.744 195.242 380.198 199.514 379.358 209.639C378.517 219.764 373.922 223.077 380.853 226.397C387.784 229.718 392.406 239.953 391.48 245.024C390.554 250.095 388.601 254.172 396.755 258.079C404.909 261.986 403.525 263.829 410.065 267.965C416.606 272.101 418.169 268.84 422.849 270.581C427.529 272.322 424.539 262.868 439.292 262.417C454.046 261.967 453.528 267.233 457.503 263.122C461.478 259.01 466.005 251.654 466.098 245.182C466.192 238.71 488.165 234.7 485.048 229.697C481.93 224.694 487.875 217.517 488.589 211.843C489.302 206.169 478.472 199.476 470.742 196.776C463.013 194.075 470.878 180.799 463.292 174.658C455.707 168.517 455.24 176.816 441.803 171.38Z" fill="white" stroke="#D7D7D7" stroke-width="3.67275"/>
<ellipse cx="432.076" cy="218.183" rx="21.6603" ry="20.6037" fill="white"/>
<path d="M432.076 241.082C445.197 241.082 456.032 230.936 456.032 218.183C456.032 205.429 445.197 195.283 432.076 195.283C418.955 195.283 408.12 205.429 408.12 218.183C408.12 230.936 418.955 241.082 432.076 241.082Z" stroke="#D7D7D7" stroke-opacity="0.6" stroke-width="4.59093"/>
<path d="M25.8372 129H63.2134L76.7592 77.3255H77.7626L91.3083 129H128.685L152.766 32.6748H118.149L107.613 90.8713H106.861L94.0676 32.6748H60.4541L48.1626 91.373H47.4101L36.3728 32.6748H1.75593L25.8372 129ZM207.733 130.756C234.448 130.756 251.631 117.963 254.892 97.895H223.285C221.278 103.351 215.572 106.424 208.485 106.424C198.2 106.424 192.18 99.6509 192.18 90.3696V88.8645H254.892V80.8374C254.892 50.1713 236.078 31.4205 206.98 31.4205C177.129 31.4205 158.065 51.2374 158.065 81.0882C158.065 112.256 176.878 130.756 207.733 130.756ZM192.18 69.8001C192.368 61.4594 199.267 55.7527 207.733 55.7527C216.324 55.7527 222.846 61.5222 223.034 69.8001H192.18ZM361.643 32.6748H345.087V9.59683H310.47V32.6748H298.179V57.7595H310.47V101.281C310.219 121.475 322.699 131.697 346.592 130.38C354.431 129.941 360.263 128.31 363.399 127.369L358.382 103.037C357.065 103.351 353.679 104.041 351.609 104.041C347.094 104.041 345.087 102.034 345.087 98.0204V57.7595H361.643V32.6748ZM412.455 74.817C412.518 65.2849 418.037 59.5154 426.503 59.5154C435.345 59.5154 440.362 65.2849 440.299 74.817V129H474.916V67.5425C474.979 46.4713 461.684 31.4205 441.303 31.4205C427.067 31.4205 416.531 38.6951 412.204 50.9866H411.201V0.566336H377.838V129H412.455V74.817ZM538.161 130.756C564.876 130.756 582.059 117.963 585.32 97.895H553.713C551.707 103.351 546 106.424 538.913 106.424C528.629 106.424 522.608 99.6509 522.608 90.3696V88.8645H585.32V80.8374C585.32 50.1713 566.507 31.4205 537.408 31.4205C507.558 31.4205 488.493 51.2374 488.493 81.0882C488.493 112.256 507.307 130.756 538.161 130.756ZM522.608 69.8001C522.796 61.4594 529.695 55.7527 538.161 55.7527C546.752 55.7527 553.274 61.5222 553.463 69.8001H522.608Z" fill="white"/>
<path d="M299.775 173.952H282.215V169.687C282.215 165.172 283.971 162.162 290.493 162.162C293.002 162.162 296.765 162.664 299.273 163.416L304.29 138.582C300.276 137.579 290.995 135.823 282.215 135.823C261.144 135.823 247.599 147.362 247.599 171.192V173.952H235.307V199.036H247.599V270.277H282.215V199.036H299.775V173.952ZM523.906 271.531C537.452 271.531 546.734 264.257 550.747 254.474H551.5V270.277H585.866V141.843H551.249V190.759H550.747C546.984 180.976 537.954 172.698 523.656 172.698C504.591 172.698 486.029 187.247 486.029 222.114C486.029 255.477 503.337 271.531 523.906 271.531ZM536.7 244.941C527.167 244.941 521.649 236.413 521.649 222.114C521.649 207.816 527.167 199.287 536.7 199.287C546.232 199.287 552.001 207.816 552.001 222.114C552.001 236.162 546.232 244.941 536.7 244.941ZM602.861 270.277H637.477V173.952H602.861V270.277ZM620.169 163.918C629.576 163.918 637.227 156.831 637.227 148.115C637.227 139.398 629.576 132.311 620.169 132.311C610.762 132.311 603.111 139.398 603.111 148.115C603.111 156.831 610.762 163.918 620.169 163.918ZM701.271 272.033C727.986 272.033 745.169 259.24 748.43 239.172H716.824C714.817 244.628 709.11 247.701 702.024 247.701C691.739 247.701 685.718 240.928 685.718 231.647V230.142H748.43V222.114C748.43 191.448 729.617 172.698 700.518 172.698C670.668 172.698 651.603 192.514 651.603 222.365C651.603 253.533 670.417 272.033 701.271 272.033ZM685.718 211.077C685.907 202.736 692.805 197.03 701.271 197.03C709.863 197.03 716.385 202.799 716.573 211.077H685.718ZM850.603 205.308C849.725 184.926 832.793 172.698 804.949 172.698C777.419 172.698 760.424 183.986 760.549 204.053C760.424 219.23 770.27 228.95 789.898 232.399L806.956 235.409C814.481 236.789 817.868 238.796 817.993 242.433C817.868 246.447 813.29 248.704 806.956 248.704C799.117 248.704 793.598 245.318 792.658 239.172H758.292C760.173 258.926 777.231 272.033 806.705 272.033C833.358 272.033 852.986 259.052 853.112 238.419C852.986 224.184 843.454 215.906 823.763 212.331L804.197 208.82C796.859 207.503 794.79 204.869 794.915 202.047C794.79 198.033 799.744 195.775 805.702 195.775C812.537 195.775 818.244 199.413 818.746 205.308H850.603Z" fill="white"/>
</svg>
