<svg width="27" height="28" viewBox="0 0 27 28" fill="none" xmlns="http://www.w3.org/2000/svg">
<circle cx="13.2045" cy="13.2045" r="13.2045" fill="#F4BA26"/>
<path d="M8.43786 17.4446L13.9712 12.0924C14.1322 11.9314 14.2998 11.7637 14.4742 11.5893C14.6486 11.4015 14.8029 11.207 14.937 11.0058C15.0846 10.8046 15.2053 10.5967 15.2992 10.3821C15.3931 10.154 15.44 9.91927 15.44 9.67782C15.44 9.38271 15.3797 9.12113 15.2589 8.89309C15.1516 8.66505 15.0041 8.47055 14.8163 8.30958C14.6285 8.14861 14.4071 8.02788 14.1523 7.94739C13.9108 7.85349 13.6492 7.80655 13.3676 7.80655C12.7639 7.80655 12.2676 7.98093 11.8786 8.3297C11.4896 8.67846 11.2548 9.14796 11.1743 9.73818L8.63907 9.53697C8.69272 8.87968 8.84699 8.30287 9.10186 7.80655C9.37014 7.29681 9.7122 6.87426 10.128 6.53891C10.5439 6.20356 11.0268 5.94869 11.5768 5.7743C12.1267 5.59992 12.7237 5.51273 13.3676 5.51273C14.0114 5.51273 14.6084 5.59992 15.1583 5.7743C15.7217 5.93527 16.2114 6.18343 16.6272 6.51879C17.043 6.84073 17.3717 7.25657 17.6131 7.7663C17.8546 8.27604 17.9753 8.87297 17.9753 9.55709C17.9753 10.4558 17.7674 11.2339 17.3516 11.8912C16.9491 12.535 16.426 13.1521 15.7821 13.7423L11.3756 17.8269H17.9753V20H8.43786V17.4446Z" fill="white"/>
</svg>
