<svg width="31" height="29" viewBox="0 0 31 29" fill="none" xmlns="http://www.w3.org/2000/svg">
<path d="M18.1912 29H12.4445C12.0845 29.0001 11.7352 28.8871 11.4547 28.6798C11.1741 28.4725 10.9791 28.1833 10.9021 27.8603L10.2595 25.1285C9.40237 24.7835 8.58959 24.3522 7.83616 23.8424L4.93599 24.6906C4.59272 24.7911 4.22232 24.7808 3.88632 24.6613C3.55031 24.5418 3.26892 24.3204 3.08886 24.0338L0.209218 19.4648C0.0310483 19.1779 -0.035832 18.8439 0.0195188 18.5176C0.0748695 18.1912 0.249174 17.8918 0.513916 17.6683L2.76363 15.7833C2.66133 14.9294 2.66133 14.0677 2.76363 13.2139L0.513916 11.3332C0.248799 11.1096 0.0742575 10.8099 0.0188977 10.4832C-0.0364621 10.1565 0.0306441 9.82226 0.209218 9.5352L3.08254 4.96335C3.2626 4.67671 3.544 4.45526 3.88 4.33577C4.21601 4.21629 4.5864 4.20596 4.92968 4.3065L7.82984 5.15475C8.21506 4.89375 8.61606 4.65015 9.02969 4.42975C9.42912 4.22385 9.83959 4.0368 10.2595 3.87005L10.9037 1.14115C10.9804 0.818087 11.1749 0.528797 11.4552 0.321246C11.7354 0.113694 12.0845 0.000347951 12.4445 0H18.1912C18.5512 0.000347951 18.9003 0.113694 19.1805 0.321246C19.4608 0.528797 19.6554 0.818087 19.732 1.14115L20.3825 3.8715C20.8245 4.0513 21.2571 4.25285 21.6755 4.4776C22.0654 4.68495 22.4428 4.9126 22.8059 5.15765L25.7076 4.3094C26.0507 4.20923 26.4207 4.21975 26.7564 4.33921C27.092 4.45868 27.3732 4.67992 27.5532 4.96625L30.4265 9.5381C30.7928 10.1283 30.6665 10.875 30.1218 11.3347L27.8721 13.2196C27.9744 14.0735 27.9744 14.9352 27.8721 15.7891L30.1218 17.6741C30.6665 18.1352 30.7928 18.8805 30.4265 19.4706L27.5532 24.0424C27.3731 24.3291 27.0917 24.5505 26.7557 24.67C26.4197 24.7895 26.0493 24.7998 25.706 24.6993L22.8059 23.851C22.053 24.3605 21.2407 24.7914 20.3841 25.1357L19.732 27.8603C19.655 28.1831 19.4603 28.4721 19.1801 28.6793C18.8999 28.8866 18.551 28.9997 18.1912 29V29ZM15.3115 8.7C13.6367 8.7 12.0305 9.31107 10.8462 10.3988C9.66187 11.4865 8.99654 12.9617 8.99654 14.5C8.99654 16.0383 9.66187 17.5135 10.8462 18.6012C12.0305 19.6889 13.6367 20.3 15.3115 20.3C16.9864 20.3 18.5926 19.6889 19.7769 18.6012C20.9612 17.5135 21.6265 16.0383 21.6265 14.5C21.6265 12.9617 20.9612 11.4865 19.7769 10.3988C18.5926 9.31107 16.9864 8.7 15.3115 8.7V8.7Z" fill="white"/>
</svg>
