<svg width="57" height="36" viewBox="0 0 57 36" fill="none" xmlns="http://www.w3.org/2000/svg">
<rect x="16.1857" y="1.86945" width="22.5659" height="22.5659" rx="0.595815" transform="rotate(40.2083 16.1857 1.86945)" fill="#FFC83A"/>
<circle cx="20.7847" cy="12.3443" r="7.57928" transform="rotate(-26.5536 20.7847 12.3443)" fill="#EC5353"/>
<circle cx="13.3156" cy="23.4448" r="7.57928" transform="rotate(-26.5536 13.3156 23.4448)" fill="#EC5353"/>
<path d="M14.6813 6.89961C11.8693 7.07536 10.7269 6.31377 10.5072 5.91101C8.96939 5.69132 9.62846 7.44883 8.63985 8.21775C7.65125 8.98666 7.10203 9.97526 7.10203 11.8426C7.10203 13.71 6.00358 16.0167 5.01498 17.225C4.02638 18.4333 4.13622 19.5318 5.01498 21.8385C5.89374 24.1452 5.23467 25.3535 7.10203 25.3535C8.96939 25.3535 11.0564 27.111 11.386 28.3193C11.7155 29.5276 11.7155 30.6261 13.9124 30.6261C16.1093 30.6261 15.9994 31.1753 17.8668 31.395C19.7342 31.6147 19.7342 30.7359 20.9425 30.6261C22.1508 30.5162 20.5031 28.7587 23.6886 27.111C26.8741 25.4634 27.3134 26.6717 27.7528 25.3535C28.1922 24.0354 28.4119 21.9483 27.7528 20.5204C27.0938 19.0924 31.4875 15.9069 30.2793 15.138C29.071 14.3691 29.6202 12.1722 29.1808 10.854C28.7414 9.53588 25.6658 9.20635 23.6886 9.42604C21.7114 9.64573 22.0409 5.91101 19.7342 5.36179C17.4274 4.81256 18.1963 6.67992 14.6813 6.89961Z" stroke="black" stroke-width="0.794419"/>
<path d="M19.9362 7.16383C17.3641 6.12341 16.6736 4.96098 16.6499 4.50981C15.3776 3.66038 15.2151 5.50162 14.01 5.76384C12.8049 6.02605 11.8965 6.67032 11.1019 8.32869C10.3074 9.98706 8.35034 11.5683 6.95826 12.2207C5.56618 12.8731 5.19634 13.8953 4.99525 16.3178C4.79416 18.7403 3.69473 19.5329 5.3531 20.3275C7.01147 21.122 8.11713 23.5709 7.89566 24.7842C7.67419 25.9974 7.20681 26.9729 9.15783 27.9077C11.1089 28.8425 10.7776 29.2835 12.3425 30.2732C13.9074 31.2628 14.2813 30.4824 15.4011 30.899C16.5209 31.3155 15.8055 29.0536 19.3355 28.9458C22.8656 28.8379 22.7417 30.0979 23.6927 29.1143C24.6438 28.1306 25.7269 26.3706 25.7492 24.822C25.7715 23.2734 31.0289 22.314 30.2831 21.117C29.5372 19.92 30.9597 18.2027 31.1303 16.8451C31.301 15.4876 28.7098 13.8862 26.8604 13.24C25.011 12.5939 26.8927 9.41733 25.0778 7.94807C23.263 6.47881 23.1513 8.46435 19.9362 7.16383Z" stroke="#5EAF70" stroke-width="0.794419"/>
<circle cx="17.4274" cy="17.7742" r="12.0829" fill="#E9AE56"/>
<circle cx="17.4207" cy="17.7097" r="5.51613" fill="#D5983C"/>
<path d="M44.2974 17.4724C44.2974 20.3909 41.8745 22.7766 38.8609 22.7766C35.8472 22.7766 33.4243 20.3909 33.4243 17.4724C33.4243 14.5539 35.8472 12.1682 38.8609 12.1682C41.8745 12.1682 44.2974 14.5539 44.2974 17.4724Z" fill="white" stroke="#E2931B" stroke-width="1.03987"/>
<path d="M51.9747 17.4724C51.9747 24.4813 46.118 30.1891 38.8609 30.1891C31.6037 30.1891 25.747 24.4813 25.747 17.4724C25.747 10.4635 31.6037 4.75568 38.8609 4.75568C46.118 4.75568 51.9747 10.4635 51.9747 17.4724Z" fill="#E2931B" stroke="#E2931B" stroke-width="1.03987"/>
<path opacity="0.8" d="M41.2979 6.14303C38.6045 5.05353 37.8814 3.83626 37.8566 3.36381C36.5243 2.4743 36.3541 4.40241 35.0922 4.67699C33.8302 4.95157 32.8789 5.62624 32.0469 7.36284C31.2149 9.09945 29.1655 10.7552 27.7078 11.4384C26.25 12.1216 25.8627 13.1921 25.6522 15.7289C25.4416 18.2656 24.2903 19.0957 26.0269 19.9277C27.7635 20.7597 28.9213 23.3241 28.6894 24.5946C28.4575 25.8651 27.968 26.8867 30.0111 27.8655C32.0542 28.8444 31.7073 29.3062 33.346 30.3426C34.9847 31.3789 35.3763 30.5617 36.5489 30.9979C37.7215 31.4341 36.9723 29.0655 40.6689 28.9526C44.3655 28.8396 44.2358 30.1591 45.2317 29.129C46.2276 28.0989 47.3619 26.2559 47.3852 24.6343C47.4085 23.0126 52.914 22.0079 52.1329 20.7545C51.3519 19.501 52.8415 17.7027 53.0202 16.281C53.1989 14.8594 50.4854 13.1826 48.5488 12.5059C46.6121 11.8292 48.5827 8.50285 46.6822 6.96427C44.7817 5.4257 44.6647 7.50491 41.2979 6.14303Z" fill="white" stroke="#D7D7D7" stroke-width="0.831897"/>
<ellipse cx="38.8609" cy="17.8695" rx="5.42703" ry="5.16229" fill="white"/>
<path d="M38.8609 23.5517C42.1205 23.5517 44.8078 21.0319 44.8078 17.8695C44.8078 14.7071 42.1205 12.1873 38.8609 12.1873C35.6013 12.1873 32.9139 14.7071 32.9139 17.8695C32.9139 21.0319 35.6013 23.5517 38.8609 23.5517Z" stroke="#D7D7D7" stroke-opacity="0.6" stroke-width="1.03987"/>
</svg>
