<svg width="317" height="41" viewBox="0 0 317 41" fill="none" xmlns="http://www.w3.org/2000/svg">
<path d="M17.5234 32H25.4212V22.3977H28.1484L33.2621 32H41.8416L35.9325 21.1477C39.0291 19.6562 40.8757 16.8295 40.8757 12.7955C40.8757 6.60227 36.5433 2.90909 30.0803 2.90909H17.5234V32ZM25.4212 16.2614V9.21591H28.2053C30.9751 9.21591 32.6371 10.2955 32.6371 12.7955C32.6371 15.2812 30.9751 16.2614 28.2053 16.2614H25.4212ZM54.3416 32.3977C60.3928 32.3977 64.2848 29.5 65.0234 24.9545H57.8643C57.4098 26.1903 56.1172 26.8864 54.5121 26.8864C52.1825 26.8864 50.8189 25.3523 50.8189 23.25V22.9091H65.0234V21.0909C65.0234 14.1449 60.7621 9.89773 54.1712 9.89773C47.4098 9.89773 43.0916 14.3864 43.0916 21.1477C43.0916 28.2074 47.353 32.3977 54.3416 32.3977ZM50.8189 18.5909C50.8615 16.7017 52.424 15.4091 54.3416 15.4091C56.2876 15.4091 57.7649 16.7159 57.8075 18.5909H50.8189ZM78.7344 32.3977C85.1974 32.3977 89.1605 28.6903 89.2457 22.9091H81.973C81.8026 25.196 80.5668 26.4318 78.848 26.4318C76.7884 26.4318 75.4389 24.6705 75.4389 21.0909C75.4389 17.5114 76.7884 15.75 78.848 15.75C80.581 15.75 81.7599 16.9858 81.973 19.2727H89.2457C89.2031 13.5909 85.1548 9.89773 78.7344 9.89773C71.6321 9.89773 67.4276 14.4432 67.4276 21.1477C67.4276 27.8523 71.6321 32.3977 78.7344 32.3977ZM92.4808 32H100.322V10.1818H92.4808V32ZM96.4013 7.90909C98.532 7.90909 100.265 6.30398 100.265 4.32955C100.265 2.35511 98.532 0.75 96.4013 0.75C94.2706 0.75 92.5376 2.35511 92.5376 4.32955C92.5376 6.30398 94.2706 7.90909 96.4013 7.90909ZM104.317 40.1818H112.158V28.4205H112.271C113.18 30.6364 115.283 32.2841 118.351 32.2841C123.01 32.2841 126.93 28.6477 126.93 21.0909C126.93 13.1932 122.726 9.89773 118.408 9.89773C115.169 9.89773 113.124 11.7727 112.271 13.9886H112.101V10.1818H104.317V40.1818ZM111.987 21.0909C111.987 17.8523 113.294 15.9205 115.453 15.9205C117.612 15.9205 118.862 17.8523 118.862 21.0909C118.862 24.3295 117.612 26.2614 115.453 26.2614C113.294 26.2614 111.987 24.2727 111.987 21.0909ZM140.67 32.3977C146.721 32.3977 150.613 29.5 151.352 24.9545H144.192C143.738 26.1903 142.445 26.8864 140.84 26.8864C138.511 26.8864 137.147 25.3523 137.147 23.25V22.9091H151.352V21.0909C151.352 14.1449 147.09 9.89773 140.499 9.89773C133.738 9.89773 129.42 14.3864 129.42 21.1477C129.42 28.2074 133.681 32.3977 140.67 32.3977ZM137.147 18.5909C137.19 16.7017 138.752 15.4091 140.67 15.4091C142.616 15.4091 144.093 16.7159 144.136 18.5909H137.147ZM178.088 12H185.645C185.616 6.28977 181.213 2.51136 174.168 2.51136C167.25 2.51136 162.364 6.23295 162.406 11.7727C162.392 16.3182 165.545 18.8466 170.702 19.9545L173.599 20.5795C176.838 21.2898 177.946 22.0994 177.974 23.4205C177.946 24.8551 176.639 25.8636 174.111 25.8636C171.085 25.8636 169.295 24.4432 169.168 21.7727H161.668C161.696 29.0739 166.639 32.3409 174.224 32.3409C181.597 32.3409 186.014 29.1591 186.043 23.4205C186.014 18.9886 183.372 15.8778 176.952 14.5L174.565 13.9886C171.81 13.4062 170.574 12.5966 170.645 11.2045C170.659 9.92614 171.724 8.98864 174.168 8.98864C176.724 8.98864 177.932 10.1108 178.088 12ZM199.615 32.3977C205.666 32.3977 209.558 29.5 210.297 24.9545H203.138C202.683 26.1903 201.391 26.8864 199.786 26.8864C197.456 26.8864 196.092 25.3523 196.092 23.25V22.9091H210.297V21.0909C210.297 14.1449 206.036 9.89773 199.445 9.89773C192.683 9.89773 188.365 14.3864 188.365 21.1477C188.365 28.2074 192.626 32.3977 199.615 32.3977ZM196.092 18.5909C196.135 16.7017 197.697 15.4091 199.615 15.4091C201.561 15.4091 203.038 16.7159 203.081 18.5909H196.092ZM219.576 32.3409C222.417 32.3409 224.562 31.375 225.883 28.9318H226.053V32H233.383V17.0568C233.383 13.0227 229.562 9.89773 223.326 9.89773C216.806 9.89773 213.596 13.3068 213.326 17.2841H220.542C220.727 15.9347 221.721 15.2955 223.212 15.2955C224.576 15.2955 225.542 15.9205 225.542 17.0568V17.1136C225.542 18.3778 224.15 18.7756 220.485 19.0455C215.982 19.3722 212.474 21.1903 212.474 25.9773C212.474 30.3239 215.4 32.3409 219.576 32.3409ZM222.133 27.3977C220.798 27.3977 219.86 26.7443 219.86 25.5227C219.86 24.4006 220.656 23.5341 222.474 23.25C223.724 23.0511 224.775 22.7955 225.599 22.4545V24.2727C225.599 26.2614 223.908 27.3977 222.133 27.3977ZM237.129 32H244.97V20.6364C244.97 18.1364 246.689 16.4886 249.004 16.4886C249.814 16.4886 251.121 16.6165 251.902 16.8864V10.196C251.277 10.0114 250.595 9.89773 249.913 9.89773C247.584 9.89773 245.766 11.2614 244.97 14.3295H244.743V10.1818H237.129V32ZM263.734 32.3977C270.197 32.3977 274.161 28.6903 274.246 22.9091H266.973C266.803 25.196 265.567 26.4318 263.848 26.4318C261.788 26.4318 260.439 24.6705 260.439 21.0909C260.439 17.5114 261.788 15.75 263.848 15.75C265.581 15.75 266.76 16.9858 266.973 19.2727H274.246C274.203 13.5909 270.155 9.89773 263.734 9.89773C256.632 9.89773 252.428 14.4432 252.428 21.1477C252.428 27.8523 256.632 32.3977 263.734 32.3977ZM285.322 19.7273C285.336 17.5682 286.586 16.2614 288.504 16.2614C290.506 16.2614 291.643 17.5682 291.629 19.7273V32H299.469V18.0795C299.484 13.3068 296.472 9.89773 291.856 9.89773C288.631 9.89773 286.245 11.5455 285.265 14.3295H285.038V2.90909H277.481V32H285.322V19.7273Z" fill="white"/>
</svg>
