<svg width="317" height="41" viewBox="0 0 317 41" fill="none" xmlns="http://www.w3.org/2000/svg">
<path d="M24.2777 32H32.1186V20.6364C32.1186 18.1364 33.8374 16.4886 36.1527 16.4886C36.9624 16.4886 38.2692 16.6165 39.0504 16.8864V10.196C38.4254 10.0114 37.7436 9.89773 37.0618 9.89773C34.7322 9.89773 32.9141 11.2614 32.1186 14.3295H31.8913V10.1818H24.2777V32ZM50.826 32.3977C56.8771 32.3977 60.7692 29.5 61.5078 24.9545H54.3487C53.8942 26.1903 52.6016 26.8864 50.9964 26.8864C48.6669 26.8864 47.3033 25.3523 47.3033 23.25V22.9091H61.5078V21.0909C61.5078 14.1449 57.2464 9.89773 50.6555 9.89773C43.8942 9.89773 39.576 14.3864 39.576 21.1477C39.576 28.2074 43.8374 32.3977 50.826 32.3977ZM47.3033 18.5909C47.3459 16.7017 48.9084 15.4091 50.826 15.4091C52.772 15.4091 54.2493 16.7159 54.2919 18.5909H47.3033ZM75.2188 32.3977C81.6818 32.3977 85.6449 28.6903 85.7301 22.9091H78.4574C78.2869 25.196 77.0511 26.4318 75.3324 26.4318C73.2727 26.4318 71.9233 24.6705 71.9233 21.0909C71.9233 17.5114 73.2727 15.75 75.3324 15.75C77.0653 15.75 78.2443 16.9858 78.4574 19.2727H85.7301C85.6875 13.5909 81.6392 9.89773 75.2188 9.89773C68.1165 9.89773 63.9119 14.4432 63.9119 21.1477C63.9119 27.8523 68.1165 32.3977 75.2188 32.3977ZM88.9652 32H96.8061V10.1818H88.9652V32ZM92.8857 7.90909C95.0163 7.90909 96.7493 6.30398 96.7493 4.32955C96.7493 2.35511 95.0163 0.75 92.8857 0.75C90.755 0.75 89.022 2.35511 89.022 4.32955C89.022 6.30398 90.755 7.90909 92.8857 7.90909ZM100.801 40.1818H108.642V28.4205H108.756C109.665 30.6364 111.767 32.2841 114.835 32.2841C119.494 32.2841 123.415 28.6477 123.415 21.0909C123.415 13.1932 119.21 9.89773 114.892 9.89773C111.653 9.89773 109.608 11.7727 108.756 13.9886H108.585V10.1818H100.801V40.1818ZM108.472 21.0909C108.472 17.8523 109.778 15.9205 111.938 15.9205C114.097 15.9205 115.347 17.8523 115.347 21.0909C115.347 24.3295 114.097 26.2614 111.938 26.2614C109.778 26.2614 108.472 24.2727 108.472 21.0909ZM137.154 32.3977C143.205 32.3977 147.097 29.5 147.836 24.9545H140.677C140.222 26.1903 138.93 26.8864 137.325 26.8864C134.995 26.8864 133.631 25.3523 133.631 23.25V22.9091H147.836V21.0909C147.836 14.1449 143.575 9.89773 136.984 9.89773C130.222 9.89773 125.904 14.3864 125.904 21.1477C125.904 28.2074 130.165 32.3977 137.154 32.3977ZM133.631 18.5909C133.674 16.7017 135.237 15.4091 137.154 15.4091C139.1 15.4091 140.577 16.7159 140.62 18.5909H133.631ZM178.947 17.2841C178.749 12.6676 174.913 9.89773 168.607 9.89773C162.371 9.89773 158.521 12.4545 158.55 17C158.521 20.4375 160.751 22.6392 165.197 23.4205L169.061 24.1023C170.766 24.4148 171.533 24.8693 171.561 25.6932C171.533 26.6023 170.496 27.1136 169.061 27.1136C167.286 27.1136 166.036 26.3466 165.822 24.9545H158.038C158.464 29.429 162.328 32.3977 169.004 32.3977C175.041 32.3977 179.487 29.4574 179.516 24.7841C179.487 21.5597 177.328 19.6847 172.868 18.875L168.436 18.0795C166.774 17.7812 166.305 17.1847 166.334 16.5455C166.305 15.6364 167.428 15.125 168.777 15.125C170.325 15.125 171.618 15.9489 171.732 17.2841H178.947ZM192.974 32.3977C199.026 32.3977 202.918 29.5 203.656 24.9545H196.497C196.043 26.1903 194.75 26.8864 193.145 26.8864C190.815 26.8864 189.452 25.3523 189.452 23.25V22.9091H203.656V21.0909C203.656 14.1449 199.395 9.89773 192.804 9.89773C186.043 9.89773 181.724 14.3864 181.724 21.1477C181.724 28.2074 185.986 32.3977 192.974 32.3977ZM189.452 18.5909C189.494 16.7017 191.057 15.4091 192.974 15.4091C194.92 15.4091 196.398 16.7159 196.44 18.5909H189.452ZM212.935 32.3409C215.776 32.3409 217.921 31.375 219.242 28.9318H219.413V32H226.742V17.0568C226.742 13.0227 222.921 9.89773 216.685 9.89773C210.165 9.89773 206.955 13.3068 206.685 17.2841H213.901C214.086 15.9347 215.08 15.2955 216.572 15.2955C217.935 15.2955 218.901 15.9205 218.901 17.0568V17.1136C218.901 18.3778 217.509 18.7756 213.844 19.0455C209.342 19.3722 205.833 21.1903 205.833 25.9773C205.833 30.3239 208.759 32.3409 212.935 32.3409ZM215.492 27.3977C214.157 27.3977 213.219 26.7443 213.219 25.5227C213.219 24.4006 214.015 23.5341 215.833 23.25C217.083 23.0511 218.134 22.7955 218.958 22.4545V24.2727C218.958 26.2614 217.268 27.3977 215.492 27.3977ZM230.489 32H238.33V20.6364C238.33 18.1364 240.048 16.4886 242.364 16.4886C243.173 16.4886 244.48 16.6165 245.261 16.8864V10.196C244.636 10.0114 243.955 9.89773 243.273 9.89773C240.943 9.89773 239.125 11.2614 238.33 14.3295H238.102V10.1818H230.489V32ZM257.094 32.3977C263.557 32.3977 267.52 28.6903 267.605 22.9091H260.332C260.162 25.196 258.926 26.4318 257.207 26.4318C255.148 26.4318 253.798 24.6705 253.798 21.0909C253.798 17.5114 255.148 15.75 257.207 15.75C258.94 15.75 260.119 16.9858 260.332 19.2727H267.605C267.562 13.5909 263.514 9.89773 257.094 9.89773C249.991 9.89773 245.787 14.4432 245.787 21.1477C245.787 27.8523 249.991 32.3977 257.094 32.3977ZM278.681 19.7273C278.695 17.5682 279.945 16.2614 281.863 16.2614C283.866 16.2614 285.002 17.5682 284.988 19.7273V32H292.829V18.0795C292.843 13.3068 289.832 9.89773 285.215 9.89773C281.991 9.89773 279.604 11.5455 278.624 14.3295H278.397V2.90909H270.84V32H278.681V19.7273Z" fill="white"/>
</svg>
