<svg width="297" height="41" viewBox="0 0 297 41" fill="none" xmlns="http://www.w3.org/2000/svg">
<path d="M80.7638 12H88.3207C88.2923 6.28977 83.8889 2.51136 76.8434 2.51136C69.9258 2.51136 65.0394 6.23295 65.082 11.7727C65.0678 16.3182 68.2212 18.8466 73.3775 19.9545L76.2752 20.5795C79.5138 21.2898 80.6218 22.0994 80.6502 23.4205C80.6218 24.8551 79.315 25.8636 76.7866 25.8636C73.761 25.8636 71.9712 24.4432 71.8434 21.7727H64.3434C64.3718 29.0739 69.315 32.3409 76.9002 32.3409C84.2724 32.3409 88.69 29.1591 88.7184 23.4205C88.69 18.9886 86.0479 15.8778 79.6275 14.5L77.2411 13.9886C74.4854 13.4062 73.2496 12.5966 73.3207 11.2045C73.3349 9.92614 74.4002 8.98864 76.8434 8.98864C79.4002 8.98864 80.6076 10.1108 80.7638 12ZM102.291 32.3977C108.342 32.3977 112.234 29.5 112.973 24.9545H105.814C105.359 26.1903 104.066 26.8864 102.461 26.8864C100.132 26.8864 98.7681 25.3523 98.7681 23.25V22.9091H112.973V21.0909C112.973 14.1449 108.711 9.89773 102.12 9.89773C95.359 9.89773 91.0408 14.3864 91.0408 21.1477C91.0408 28.2074 95.3022 32.3977 102.291 32.3977ZM98.7681 18.5909C98.8107 16.7017 100.373 15.4091 102.291 15.4091C104.237 15.4091 105.714 16.7159 105.757 18.5909H98.7681ZM129.184 10.1818H125.434V4.95455H117.593V10.1818H114.809V15.8636H117.593V25.7216C117.536 30.2955 120.363 32.6108 125.775 32.3125C127.55 32.2131 128.871 31.8438 129.581 31.6307L128.445 26.1193C128.147 26.1903 127.38 26.3466 126.911 26.3466C125.888 26.3466 125.434 25.892 125.434 24.983V15.8636H129.184V10.1818ZM145.395 10.1818H141.645V4.95455H133.804V10.1818H131.02V15.8636H133.804V25.7216C133.747 30.2955 136.574 32.6108 141.985 32.3125C143.761 32.2131 145.082 31.8438 145.792 31.6307L144.656 26.1193C144.358 26.1903 143.591 26.3466 143.122 26.3466C142.099 26.3466 141.645 25.892 141.645 24.983V15.8636H145.395V10.1818ZM148.594 32H156.435V10.1818H148.594V32ZM152.515 7.90909C154.645 7.90909 156.378 6.30398 156.378 4.32955C156.378 2.35511 154.645 0.75 152.515 0.75C150.384 0.75 148.651 2.35511 148.651 4.32955C148.651 6.30398 150.384 7.90909 152.515 7.90909ZM168.271 19.7273C168.285 17.5682 169.507 16.2614 171.453 16.2614C173.427 16.2614 174.592 17.5682 174.578 19.7273V32H182.419V18.0795C182.433 13.3352 179.436 9.89773 174.805 9.89773C171.595 9.89773 169.052 11.5739 168.1 14.3295H167.873V10.1818H160.43V32H168.271V19.7273ZM196.801 40.6364C203.704 40.6364 208.278 37.483 208.278 31.9432V10.1818H200.437V13.9886H200.267C199.414 11.7727 197.369 9.89773 194.13 9.89773C189.812 9.89773 185.608 13.1932 185.608 21.0909C185.608 28.6477 189.528 31.7159 194.187 31.7159C197.142 31.7159 199.471 30.4659 200.324 28.25H200.551V31.9432C200.551 34.5142 199.059 35.3523 197.028 35.3523C195.224 35.3523 193.903 34.8125 193.676 33.4205H186.119C186.417 37.625 190.238 40.6364 196.801 40.6364ZM197.085 26.1477C194.926 26.1477 193.676 24.3295 193.676 21.0909C193.676 17.8523 194.926 15.9205 197.085 15.9205C199.244 15.9205 200.551 17.8523 200.551 21.0909C200.551 24.2727 199.244 26.1477 197.085 26.1477ZM232.209 17.2841C232.01 12.6676 228.175 9.89773 221.868 9.89773C215.632 9.89773 211.783 12.4545 211.811 17C211.783 20.4375 214.013 22.6392 218.459 23.4205L222.323 24.1023C224.027 24.4148 224.794 24.8693 224.823 25.6932C224.794 26.6023 223.757 27.1136 222.323 27.1136C220.547 27.1136 219.297 26.3466 219.084 24.9545H211.3C211.726 29.429 215.59 32.3977 222.266 32.3977C228.303 32.3977 232.749 29.4574 232.777 24.7841C232.749 21.5597 230.59 19.6847 226.13 18.875L221.698 18.0795C220.036 17.7812 219.567 17.1847 219.596 16.5455C219.567 15.6364 220.689 15.125 222.039 15.125C223.587 15.125 224.88 15.9489 224.993 17.2841H232.209Z" fill="white"/>
</svg>
