<svg width="297" height="41" viewBox="0 0 297 41" fill="none" xmlns="http://www.w3.org/2000/svg">
<path d="M86.7014 17.2841C86.5025 12.6676 82.6673 9.89773 76.3604 9.89773C70.1246 9.89773 66.2752 12.4545 66.3036 17C66.2752 20.4375 68.5053 22.6392 72.9513 23.4205L76.815 24.1023C78.5195 24.4148 79.2866 24.8693 79.315 25.6932C79.2866 26.6023 78.2496 27.1136 76.815 27.1136C75.0394 27.1136 73.7894 26.3466 73.5763 24.9545H65.7923C66.2184 29.429 70.082 32.3977 76.7582 32.3977C82.7951 32.3977 87.2411 29.4574 87.2695 24.7841C87.2411 21.5597 85.082 19.6847 80.6218 18.875L76.19 18.0795C74.5281 17.7812 74.0593 17.1847 74.0877 16.5455C74.0593 15.6364 75.1815 15.125 76.5309 15.125C78.0792 15.125 79.3718 15.9489 79.4854 17.2841H86.7014ZM100.728 32.3977C106.779 32.3977 110.672 29.5 111.41 24.9545H104.251C103.797 26.1903 102.504 26.8864 100.899 26.8864C98.5692 26.8864 97.2056 25.3523 97.2056 23.25V22.9091H111.41V21.0909C111.41 14.1449 107.149 9.89773 100.558 9.89773C93.7965 9.89773 89.4783 14.3864 89.4783 21.1477C89.4783 28.2074 93.7397 32.3977 100.728 32.3977ZM97.2056 18.5909C97.2482 16.7017 98.8107 15.4091 100.728 15.4091C102.674 15.4091 104.152 16.7159 104.194 18.5909H97.2056ZM127.621 10.1818H123.871V4.95455H116.03V10.1818H113.246V15.8636H116.03V25.7216C115.973 30.2955 118.8 32.6108 124.212 32.3125C125.988 32.2131 127.309 31.8438 128.019 31.6307L126.882 26.1193C126.584 26.1903 125.817 26.3466 125.348 26.3466C124.326 26.3466 123.871 25.892 123.871 24.983V15.8636H127.621V10.1818ZM143.832 10.1818H140.082V4.95455H132.241V10.1818H129.457V15.8636H132.241V25.7216C132.184 30.2955 135.011 32.6108 140.423 32.3125C142.199 32.2131 143.52 31.8438 144.23 31.6307L143.093 26.1193C142.795 26.1903 142.028 26.3466 141.559 26.3466C140.537 26.3466 140.082 25.892 140.082 24.983V15.8636H143.832V10.1818ZM147.032 32H154.873V10.1818H147.032V32ZM150.952 7.90909C153.083 7.90909 154.816 6.30398 154.816 4.32955C154.816 2.35511 153.083 0.75 150.952 0.75C148.821 0.75 147.088 2.35511 147.088 4.32955C147.088 6.30398 148.821 7.90909 150.952 7.90909ZM166.708 19.7273C166.723 17.5682 167.944 16.2614 169.89 16.2614C171.865 16.2614 173.029 17.5682 173.015 19.7273V32H180.856V18.0795C180.87 13.3352 177.873 9.89773 173.243 9.89773C170.032 9.89773 167.49 11.5739 166.538 14.3295H166.311V10.1818H158.868V32H166.708V19.7273ZM195.238 40.6364C202.142 40.6364 206.716 37.483 206.716 31.9432V10.1818H198.875V13.9886H198.704C197.852 11.7727 195.806 9.89773 192.568 9.89773C188.25 9.89773 184.045 13.1932 184.045 21.0909C184.045 28.6477 187.966 31.7159 192.625 31.7159C195.579 31.7159 197.909 30.4659 198.761 28.25H198.988V31.9432C198.988 34.5142 197.497 35.3523 195.466 35.3523C193.662 35.3523 192.341 34.8125 192.113 33.4205H184.556C184.855 37.625 188.676 40.6364 195.238 40.6364ZM195.522 26.1477C193.363 26.1477 192.113 24.3295 192.113 21.0909C192.113 17.8523 193.363 15.9205 195.522 15.9205C197.681 15.9205 198.988 17.8523 198.988 21.0909C198.988 24.2727 197.681 26.1477 195.522 26.1477ZM230.647 17.2841C230.448 12.6676 226.613 9.89773 220.306 9.89773C214.07 9.89773 210.221 12.4545 210.249 17C210.221 20.4375 212.451 22.6392 216.897 23.4205L220.76 24.1023C222.465 24.4148 223.232 24.8693 223.26 25.6932C223.232 26.6023 222.195 27.1136 220.76 27.1136C218.985 27.1136 217.735 26.3466 217.522 24.9545H209.738C210.164 29.429 214.027 32.3977 220.703 32.3977C226.74 32.3977 231.186 29.4574 231.215 24.7841C231.186 21.5597 229.027 19.6847 224.567 18.875L220.135 18.0795C218.473 17.7812 218.005 17.1847 218.033 16.5455C218.005 15.6364 219.127 15.125 220.476 15.125C222.025 15.125 223.317 15.9489 223.431 17.2841H230.647Z" fill="white"/>
</svg>
