<svg width="195" height="67" viewBox="0 0 195 67" fill="none" xmlns="http://www.w3.org/2000/svg">
<path d="M5.85227 30H14.3182L17.3864 18.2955H17.6136L20.6818 30H29.1477L34.6023 8.18182H26.7614L24.375 21.3636H24.2045L21.3068 8.18182H13.6932L10.9091 21.4773H10.7386L8.23864 8.18182H0.397727L5.85227 30ZM47.0526 30.3977C53.1037 30.3977 56.9957 27.5 57.7344 22.9545H50.5753C50.1207 24.1903 48.8281 24.8864 47.223 24.8864C44.8935 24.8864 43.5298 23.3523 43.5298 21.25V20.9091H57.7344V19.0909C57.7344 12.1449 53.473 7.89773 46.8821 7.89773C40.1207 7.89773 35.8026 12.3864 35.8026 19.1477C35.8026 26.2074 40.0639 30.3977 47.0526 30.3977ZM43.5298 16.5909C43.5724 14.7017 45.1349 13.4091 47.0526 13.4091C48.9986 13.4091 50.4759 14.7159 50.5185 16.5909H43.5298ZM81.9141 8.18182H78.1641V2.95455H70.3232V8.18182H67.5391V13.8636H70.3232V23.7216C70.2663 28.2955 73.093 30.6108 78.505 30.3125C80.2805 30.2131 81.6016 29.8438 82.3118 29.6307L81.1754 24.1193C80.8771 24.1903 80.1101 24.3466 79.6413 24.3466C78.6186 24.3466 78.1641 23.892 78.1641 22.983V13.8636H81.9141V8.18182ZM93.4233 17.7273C93.4375 15.5682 94.6875 14.2614 96.6051 14.2614C98.608 14.2614 99.7443 15.5682 99.7301 17.7273V30H107.571V16.0795C107.585 11.3068 104.574 7.89773 99.9574 7.89773C96.733 7.89773 94.3466 9.54545 93.3665 12.3295H93.1392V0.90909H85.5824V30H93.4233V17.7273ZM121.896 30.3977C127.947 30.3977 131.839 27.5 132.578 22.9545H125.419C124.964 24.1903 123.672 24.8864 122.067 24.8864C119.737 24.8864 118.374 23.3523 118.374 21.25V20.9091H132.578V19.0909C132.578 12.1449 128.317 7.89773 121.726 7.89773C114.964 7.89773 110.646 12.3864 110.646 19.1477C110.646 26.2074 114.908 30.3977 121.896 30.3977ZM118.374 16.5909C118.416 14.7017 119.979 13.4091 121.896 13.4091C123.842 13.4091 125.32 14.7159 125.362 16.5909H118.374Z" fill="white"/>
<path d="M67.9006 40.1818H63.9233V39.2159C63.9233 38.1932 64.321 37.5114 65.7983 37.5114C66.3665 37.5114 67.2188 37.625 67.7869 37.7955L68.9233 32.1705C68.0142 31.9432 65.9119 31.5455 63.9233 31.5455C59.1506 31.5455 56.0824 34.1591 56.0824 39.5568V40.1818H53.2983V45.8636H56.0824V62H63.9233V45.8636H67.9006V40.1818ZM118.668 62.2841C121.736 62.2841 123.838 60.6364 124.747 58.4205H124.918V62H132.702V32.9091H124.861V43.9886H124.747C123.895 41.7727 121.849 39.8977 118.611 39.8977C114.293 39.8977 110.088 43.1932 110.088 51.0909C110.088 58.6477 114.009 62.2841 118.668 62.2841ZM121.565 56.2614C119.406 56.2614 118.156 54.3295 118.156 51.0909C118.156 47.8523 119.406 45.9205 121.565 45.9205C123.724 45.9205 125.031 47.8523 125.031 51.0909C125.031 54.2727 123.724 56.2614 121.565 56.2614ZM136.551 62H144.392V40.1818H136.551V62ZM140.472 37.9091C142.602 37.9091 144.335 36.304 144.335 34.3295C144.335 32.3551 142.602 30.75 140.472 30.75C138.341 30.75 136.608 32.3551 136.608 34.3295C136.608 36.304 138.341 37.9091 140.472 37.9091ZM158.842 62.3977C164.893 62.3977 168.785 59.5 169.523 54.9545H162.364C161.91 56.1903 160.617 56.8864 159.012 56.8864C156.683 56.8864 155.319 55.3523 155.319 53.25V52.9091H169.523V51.0909C169.523 44.1449 165.262 39.8977 158.671 39.8977C151.91 39.8977 147.592 44.3864 147.592 51.1477C147.592 58.2074 151.853 62.3977 158.842 62.3977ZM155.319 48.5909C155.362 46.7017 156.924 45.4091 158.842 45.4091C160.788 45.4091 162.265 46.7159 162.308 48.5909H155.319ZM192.666 47.2841C192.467 42.6676 188.632 39.8977 182.325 39.8977C176.089 39.8977 172.24 42.4545 172.268 47C172.24 50.4375 174.47 52.6392 178.916 53.4205L182.78 54.1023C184.484 54.4148 185.251 54.8693 185.28 55.6932C185.251 56.6023 184.214 57.1136 182.78 57.1136C181.004 57.1136 179.754 56.3466 179.541 54.9545H171.757C172.183 59.429 176.047 62.3977 182.723 62.3977C188.76 62.3977 193.206 59.4574 193.234 54.7841C193.206 51.5597 191.047 49.6847 186.587 48.875L182.155 48.0795C180.493 47.7812 180.024 47.1847 180.053 46.5455C180.024 45.6364 181.146 45.125 182.496 45.125C184.044 45.125 185.337 45.9489 185.45 47.2841H192.666Z" fill="white"/>
<path d="M102.733 49.7955C102.733 52.4053 100.566 54.5407 97.8677 54.5407C95.1699 54.5407 93.0028 52.4053 93.0028 49.7955C93.0028 47.1857 95.1699 45.0503 97.8677 45.0503C100.566 45.0503 102.733 47.1857 102.733 49.7955Z" fill="white" stroke="#E2931B" stroke-width="1.03987"/>
<path d="M109.673 49.7955C109.673 56.1028 104.402 61.2418 97.8677 61.2418C91.3332 61.2418 86.0624 56.1028 86.0624 49.7955C86.0624 43.4882 91.3332 38.3492 97.8677 38.3492C104.402 38.3492 109.673 43.4882 109.673 49.7955Z" fill="#E2931B" stroke="#E2931B" stroke-width="1.03987"/>
<path opacity="0.8" d="M100.071 39.5535C97.6359 38.5685 96.9823 37.4681 96.9598 37.041C95.7554 36.2368 95.6016 37.9799 94.4607 38.2281C93.3198 38.4764 92.4599 39.0863 91.7077 40.6562C90.9555 42.2261 89.1029 43.723 87.785 44.3406C86.4672 44.9583 86.1171 45.926 85.9267 48.2193C85.7363 50.5126 84.6955 51.263 86.2655 52.0151C87.8354 52.7673 88.8821 55.0856 88.6724 56.2342C88.4628 57.3827 88.0203 58.3062 89.8673 59.1912C91.7143 60.0761 91.4007 60.4936 92.8822 61.4304C94.3636 62.3673 94.7176 61.6285 95.7777 62.0229C96.8377 62.4172 96.1604 60.276 99.5022 60.1739C102.844 60.0718 102.727 61.2646 103.627 60.3334C104.527 59.4022 105.553 57.736 105.574 56.27C105.595 54.804 110.572 53.8957 109.866 52.7626C109.16 51.6294 110.507 50.0037 110.668 48.7185C110.83 47.4333 108.377 45.9174 106.626 45.3057C104.875 44.6939 106.656 41.6868 104.938 40.2959C103.22 38.905 103.115 40.7846 100.071 39.5535Z" fill="white" stroke="#D7D7D7" stroke-width="0.831897"/>
<ellipse cx="97.8676" cy="50.1545" rx="4.90617" ry="4.66685" fill="white"/>
<path d="M97.8676 55.3412C100.84 55.3412 103.294 53.0432 103.294 50.1545C103.294 47.2657 100.84 44.9677 97.8676 44.9677C94.8956 44.9677 92.4415 47.2657 92.4415 50.1545C92.4415 53.0432 94.8956 55.3412 97.8676 55.3412Z" stroke="#D7D7D7" stroke-opacity="0.6" stroke-width="1.03987"/>
<rect x="77.3687" y="35.6899" width="20.4002" height="20.4002" rx="0.595815" transform="rotate(40.2083 77.3687 35.6899)" fill="#FFC83A"/>
<circle cx="81.5261" cy="45.1595" r="6.85187" transform="rotate(-26.5536 81.5261 45.1595)" fill="#EC5353"/>
<circle cx="74.7739" cy="55.1946" r="6.85187" transform="rotate(-26.5536 74.7739 55.1946)" fill="#EC5353"/>
<path d="M76.0087 40.2373C73.4665 40.3962 72.4338 39.7077 72.2352 39.3436C70.845 39.145 71.4408 40.7338 70.5471 41.429C69.6533 42.1241 69.1568 43.0178 69.1568 44.7059C69.1568 46.3941 68.1638 48.4794 67.2701 49.5718C66.3764 50.6641 66.4757 51.6571 67.2701 53.7425C68.0645 55.8278 67.4687 56.9201 69.1568 56.9201C70.845 56.9201 72.7317 58.509 73.0296 59.6013C73.3275 60.6936 73.3275 61.6866 75.3136 61.6866C77.2996 61.6866 77.2003 62.1832 78.8885 62.3818C80.5766 62.5804 80.5766 61.7859 81.6689 61.6866C82.7612 61.5873 81.2717 59.9985 84.1515 58.509C87.0312 57.0194 87.4285 58.1118 87.8257 56.9201C88.2229 55.7285 88.4215 53.8418 87.8257 52.5508C87.2299 51.2599 91.202 48.3801 90.1096 47.685C89.0173 46.9899 89.5138 45.0038 89.1166 43.8122C88.7194 42.6206 85.9389 42.3227 84.1515 42.5213C82.364 42.7199 82.6619 39.3436 80.5766 38.8471C78.4912 38.3506 79.1864 40.0387 76.0087 40.2373Z" stroke="black" stroke-width="0.794419"/>
<path d="M80.7592 40.4762C78.434 39.5356 77.8098 38.4847 77.7883 38.0769C76.6382 37.309 76.4913 38.9735 75.4018 39.2106C74.3123 39.4476 73.4911 40.03 72.7728 41.5292C72.0545 43.0285 70.2853 44.4579 69.0269 45.0477C67.7684 45.6375 67.434 46.5616 67.2522 48.7516C67.0705 50.9416 66.0765 51.6582 67.5757 52.3765C69.075 53.0948 70.0745 55.3086 69.8743 56.4054C69.6741 57.5022 69.2516 58.3841 71.0153 59.2292C72.7791 60.0742 72.4796 60.4729 73.8944 61.3676C75.3091 62.2623 75.6471 61.5568 76.6594 61.9334C77.6717 62.3099 77.0249 60.2651 80.2162 60.1676C83.4075 60.0701 83.2954 61.2092 84.1552 60.32C85.015 59.4307 85.9942 57.8396 86.0143 56.4396C86.0345 55.0397 90.7874 54.1723 90.1131 53.0902C89.4388 52.0081 90.7248 50.4556 90.879 49.2283C91.0333 48.001 88.6908 46.5534 87.0189 45.9692C85.347 45.3851 87.0481 42.5134 85.4074 41.1852C83.7667 39.8569 83.6658 41.6519 80.7592 40.4762Z" stroke="#5EAF70" stroke-width="0.794419"/>
<circle cx="78.4911" cy="50.0683" r="10.9233" fill="#E9AE56"/>
<circle cx="78.485" cy="50.01" r="4.98672" fill="#D5983C"/>
</svg>
