<svg width="20" height="17" viewBox="0 0 20 17" fill="none" xmlns="http://www.w3.org/2000/svg">
<g filter="url(#filter0_i_343_24)">
<path d="M19.5161 3.48381C19.2058 2.80207 18.7584 2.18428 18.1988 1.66503C17.6389 1.14423 16.9787 0.730362 16.2542 0.445924C15.5029 0.149808 14.6971 -0.0017612 13.8835 1.54396e-05C12.7422 1.54396e-05 11.6286 0.296556 10.6609 0.856687C10.4294 0.990679 10.2095 1.13785 10.0011 1.2982C9.79279 1.13785 9.57286 0.990679 9.34135 0.856687C8.37364 0.296556 7.26009 1.54396e-05 6.11876 1.54396e-05C5.2969 1.54396e-05 4.50052 0.149384 3.74811 0.445924C3.02118 0.731481 2.36601 1.14224 1.80345 1.66503C1.24319 2.1837 0.795642 2.80163 0.486167 3.48381C0.164371 4.19331 0 4.94674 0 5.72214C0 6.45361 0.157426 7.21582 0.469961 7.99122C0.731565 8.63922 1.10661 9.31137 1.58583 9.99012C2.34518 11.0643 3.38928 12.1845 4.68572 13.3202C6.83412 15.2026 8.96167 16.503 9.05196 16.5557L9.60064 16.8896C9.84372 17.0368 10.1563 17.0368 10.3993 16.8896L10.948 16.5557C11.0383 16.5008 13.1635 15.2026 15.3143 13.3202C16.6107 12.1845 17.6548 11.0643 18.4141 9.99012C18.8934 9.31137 19.2707 8.63922 19.53 7.99122C19.8425 7.21582 20 6.45361 20 5.72214C20.0023 4.94674 19.8379 4.19331 19.5161 3.48381V3.48381ZM10.0011 15.1521C10.0011 15.1521 1.75946 10.1417 1.75946 5.72214C1.75946 3.48381 3.71107 1.66943 6.11876 1.66943C7.81108 1.66943 9.27884 2.56564 10.0011 3.87481C10.7235 2.56564 12.1912 1.66943 13.8835 1.66943C16.2912 1.66943 18.2428 3.48381 18.2428 5.72214C18.2428 10.1417 10.0011 15.1521 10.0011 15.1521Z" fill="#FFC83A"/>
</g>
<path d="M17.8587 2.03153L17.8583 2.03115C17.3451 1.55383 16.7387 1.17329 16.0715 0.911343L16.0708 0.911097C15.3787 0.638303 14.6355 0.498374 13.8846 0.500014L13.8835 0.500017C12.8285 0.500015 11.8016 0.774185 10.9114 1.28942L10.9114 1.28943C10.6985 1.41265 10.4968 1.54767 10.3061 1.69444L10.0011 1.92913L9.6962 1.69444C9.50548 1.54767 9.30378 1.41265 9.09088 1.28943L9.09087 1.28942C8.20073 0.774185 7.17381 0.500015 6.11876 0.500015C5.35835 0.500015 4.62426 0.638046 3.93145 0.911099L3.93093 0.911305C3.26126 1.17437 2.65976 1.55184 2.14382 2.0313L2.14312 2.03194C1.63075 2.50627 1.22296 3.06997 0.94152 3.69034L17.8587 2.03153ZM17.8587 2.03153C18.3707 2.50661 18.7786 3.07044 19.0609 3.69073C19.3536 4.33601 19.5021 5.01846 19.5 5.72065V5.72214C19.5 6.38133 19.3581 7.08018 19.0663 7.8043L19.0658 7.80547M17.8587 2.03153L19.0658 7.80547M5.01518 12.944L5.01524 12.9441C6.07183 13.8699 7.12538 14.6543 7.92695 15.2142C8.32734 15.4939 8.66384 15.7168 8.90508 15.8727C9.02569 15.9506 9.12234 16.0116 9.1911 16.0545C9.2255 16.076 9.25277 16.0928 9.27246 16.1048L9.2958 16.119C9.29977 16.1214 9.30217 16.1228 9.30331 16.1235L9.30408 16.124L9.31193 16.1285L9.31188 16.1286L9.85959 16.4619C9.85972 16.462 9.85986 16.4621 9.85999 16.4621C9.94371 16.5126 10.0563 16.5126 10.14 16.4621C10.1401 16.4621 10.1403 16.462 10.1404 16.4619L10.6881 16.1286L10.6882 16.1285C10.7688 16.0795 12.8658 14.7987 14.9848 12.944H5.01518ZM5.01518 12.944C3.73952 11.8266 2.72481 10.7351 1.99411 9.70149C1.53323 9.04869 1.17837 8.41034 0.933604 7.80404M5.01518 12.944L0.933604 7.80404M19.0658 7.80547C18.8239 8.40999 18.4674 9.04779 18.0059 9.70149M19.0658 7.80547L18.0059 9.70149M0.933604 7.80404C0.641804 7.08001 0.5 6.38125 0.5 5.72214C0.5 5.01882 0.648802 4.33574 0.941503 3.69038L0.933604 7.80404ZM10.0011 15.1521L9.74141 15.5794L10.0011 15.7373L10.2609 15.5794L10.0011 15.1521ZM10.0011 15.1521C10.2609 15.5794 10.261 15.5793 10.2611 15.5792L10.2616 15.5789L10.263 15.578L10.2682 15.5749L10.2872 15.5632C10.3037 15.553 10.3278 15.5381 10.359 15.5186C10.4212 15.4796 10.5118 15.4223 10.6267 15.3481C10.8563 15.1997 11.1832 14.9835 11.5749 14.7103C12.3575 14.1646 13.4034 13.3888 14.4515 12.4705C15.4973 11.5544 16.5591 10.4845 17.3631 9.34901C18.162 8.22082 18.7428 6.97654 18.7428 5.72214C18.7428 3.17396 16.5324 1.16943 13.8835 1.16943C12.3063 1.16943 10.8926 1.87498 10.0011 2.98172C9.1097 1.87498 7.69603 1.16943 6.11876 1.16943C3.46989 1.16943 1.25946 3.17396 1.25946 5.72214C1.25946 6.97654 1.84033 8.22082 2.63916 9.34901C3.44317 10.4845 4.50504 11.5544 5.55083 12.4705C6.59894 13.3888 7.64479 14.1646 8.42739 14.7103C8.81914 14.9835 9.14601 15.1997 9.37563 15.3481C9.49046 15.4223 9.58105 15.4796 9.64334 15.5186C9.67449 15.5381 9.69857 15.553 9.71508 15.5632L9.73411 15.5749L9.73925 15.578L9.7407 15.5789L9.74115 15.5792C9.74129 15.5793 9.74141 15.5794 10.0011 15.1521ZM18.0059 9.70149C17.2752 10.7351 16.2605 11.8265 14.9849 12.9439L18.0059 9.70149Z" stroke="white"/>
<defs>
<filter id="filter0_i_343_24" x="0" y="0" width="20" height="21" filterUnits="userSpaceOnUse" color-interpolation-filters="sRGB">
<feFlood flood-opacity="0" result="BackgroundImageFix"/>
<feBlend mode="normal" in="SourceGraphic" in2="BackgroundImageFix" result="shape"/>
<feColorMatrix in="SourceAlpha" type="matrix" values="0 0 0 0 0 0 0 0 0 0 0 0 0 0 0 0 0 0 127 0" result="hardAlpha"/>
<feOffset dy="4"/>
<feGaussianBlur stdDeviation="2"/>
<feComposite in2="hardAlpha" operator="arithmetic" k2="-1" k3="1"/>
<feColorMatrix type="matrix" values="0 0 0 0 0 0 0 0 0 0 0 0 0 0 0 0 0 0 0.25 0"/>
<feBlend mode="normal" in2="shape" result="effect1_innerShadow_343_24"/>
</filter>
</defs>
</svg>
