<svg width="19" height="17" viewBox="0 0 19 17" fill="none" xmlns="http://www.w3.org/2000/svg">
<path d="M18.5403 3.48381C18.2455 2.80207 17.8204 2.18428 17.2889 1.66503C16.757 1.14423 16.1298 0.730362 15.4415 0.445924C14.7277 0.149808 13.9622 -0.0017612 13.1894 1.54396e-05C12.1051 1.54396e-05 11.0472 0.296555 10.1279 0.856687C9.90796 0.990679 9.69903 1.13785 9.50109 1.2982C9.30315 1.13785 9.09421 0.990679 8.87428 0.856687C7.95496 0.296555 6.89709 1.54396e-05 5.81282 1.54396e-05C5.03206 1.54396e-05 4.27549 0.149384 3.56071 0.445924C2.87012 0.731481 2.24771 1.14224 1.71327 1.66503C1.18103 2.1837 0.75586 2.80163 0.461858 3.48381C0.156152 4.19331 0 4.94674 0 5.72214C0 6.45361 0.149554 7.21582 0.446463 7.99122C0.694987 8.63922 1.05128 9.31137 1.50654 9.99012C2.22792 11.0643 3.21981 12.1845 4.45144 13.3202C6.49241 15.2026 8.51359 16.503 8.59936 16.5557L9.1206 16.8896C9.35153 17.0368 9.64844 17.0368 9.87937 16.8896L10.4006 16.5557C10.4864 16.5008 12.5054 15.2026 14.5485 13.3202C15.7802 12.1845 16.7721 11.0643 17.4934 9.99012C17.9487 9.31137 18.3072 8.63922 18.5535 7.99122C18.8504 7.21582 19 6.45361 19 5.72214C19.0022 4.94674 18.846 4.19331 18.5403 3.48381Z" fill="#ffffff"/>
</svg>
